<?xml version="1.0" encoding="UTF-8" standalone="no"?>
<svg
   viewBox="0 0 16 16"
   version="1.1"
   id="svg6"
   sodipodi:docname="process_output_info.svg"
   inkscape:version="1.3-beta (cedbd6c, 2023-05-28)"
   width="32"
   height="32"
   xmlns:inkscape="http://www.inkscape.org/namespaces/inkscape"
   xmlns:sodipodi="http://sodipodi.sourceforge.net/DTD/sodipodi-0.dtd"
   xmlns="http://www.w3.org/2000/svg"
   xmlns:svg="http://www.w3.org/2000/svg"
   xmlns:rdf="http://www.w3.org/1999/02/22-rdf-syntax-ns#"
   xmlns:cc="http://creativecommons.org/ns#"
   xmlns:dc="http://purl.org/dc/elements/1.1/">
  <metadata
     id="metadata10">
    <rdf:RDF>
      <cc:Work
         rdf:about="">
        <dc:format>image/svg+xml</dc:format>
        <dc:type
           rdf:resource="http://purl.org/dc/dcmitype/StillImage" />
      </cc:Work>
    </rdf:RDF>
  </metadata>
  <sodipodi:namedview
     pagecolor="#808080"
     bordercolor="#666666"
     borderopacity="1"
     objecttolerance="10"
     gridtolerance="10"
     guidetolerance="10"
     inkscape:pageopacity="0"
     inkscape:pageshadow="2"
     inkscape:window-width="1912"
     inkscape:window-height="2056"
     id="namedview8"
     showgrid="true"
     inkscape:zoom="29.5"
     inkscape:cx="23.288136"
     inkscape:cy="21.440678"
     inkscape:window-x="3840"
     inkscape:window-y="0"
     inkscape:window-maximized="0"
     inkscape:current-layer="svg6"
     inkscape:snap-text-baseline="false"
     inkscape:snap-page="true"
     inkscape:pagecheckerboard="0"
     inkscape:snap-bbox="true"
     inkscape:bbox-paths="true"
     inkscape:bbox-nodes="true"
     inkscape:showpageshadow="0"
     inkscape:deskcolor="#d1d1d1">
    <inkscape:grid
       type="xygrid"
       id="grid845"
       originx="0"
       originy="0"
       spacingy="0.5"
       spacingx="0.5"
       units="px"
       visible="true"
       color="#404040"
       opacity="0.50196078"
       empcolor="#404040"
       empopacity="0.50196078" />
  </sodipodi:namedview>
  <defs
     id="defs3051">
    <style
       type="text/css"
       id="current-color-scheme">&#10;      .ColorScheme-Text {&#10;        color:#232629;&#10;      }&#10;      .ColorScheme-NegativeText {&#10;        color:#da4453;&#10;      }&#10;      </style>
  </defs>
  <path
     id="path66"
     style="opacity:1;fill:#ffffff;fill-opacity:1;stroke:none;stroke-width:1"
     d="M 1.9746094 2 C 1.4363669 2.0137587 1 2.4585974 1 3 L 1 13 C 1 13.549994 1.4500036 14 2 14 L 6 14 L 6 13 L 2 13 L 2 5 L 6.5 5 L 12 5 L 12 6 L 13 6 L 13 5 L 13 3 C 13 2.4500036 12.549994 2 12 2 L 2 2 C 1.9914063 2 1.9831529 1.9997816 1.9746094 2 z M 3 6 L 3 7 L 6 7 L 7 7 L 7 6 L 6 6 L 3 6 z M 10 6 L 9.5712891 7.1289062 A 3.5 3.5 0 0 0 8.7539062 7.4707031 L 7.7070312 7 L 7 7.7070312 L 7.4707031 8.7558594 A 3.5 3.5 0 0 0 7.1259766 9.5722656 L 6 10 L 6 11 L 7.1289062 11.428711 A 3.5 3.5 0 0 0 7.4707031 12.246094 L 7 13.292969 L 7.7070312 14 L 8.7558594 13.529297 A 3.5 3.5 0 0 0 9.5722656 13.874023 L 10 15 L 11 15 L 11.428711 13.871094 A 3.5 3.5 0 0 0 12.246094 13.529297 L 13.292969 14 L 14 13.292969 L 13.529297 12.244141 A 3.5 3.5 0 0 0 13.874023 11.427734 L 15 11 L 15 10 L 13.871094 9.5712891 A 3.5 3.5 0 0 0 13.529297 8.7539062 L 14 7.7070312 L 13.292969 7 L 12.244141 7.4707031 A 3.5 3.5 0 0 0 11.427734 7.1259766 L 11 6 L 10 6 z M 3 8 L 3 9 L 6 9 L 6 8 L 3 8 z M 10.5 8 A 2.5 2.5000005 0 0 1 13 10.5 A 2.5 2.5000005 0 0 1 10.5 13 A 2.5 2.5000005 0 0 1 8 10.5 A 2.5 2.5000005 0 0 1 10.5 8 z M 10 9.5 L 10 11.5 L 11.5 10.5 L 10 9.5 z M 3 10 L 3 11 L 4 11 L 5 11 L 5 10 L 4 10 L 3 10 z " />
</svg>
