<?xml version="1.0" encoding="UTF-8" standalone="no"?>
<svg
   viewBox="0 0 16 16"
   version="1.1"
   id="svg5"
   sodipodi:docname="text_keyword.svg"
   inkscape:version="1.3-beta (cedbd6c, 2023-05-28)"
   width="32"
   height="32"
   xmlns:inkscape="http://www.inkscape.org/namespaces/inkscape"
   xmlns:sodipodi="http://sodipodi.sourceforge.net/DTD/sodipodi-0.dtd"
   xmlns="http://www.w3.org/2000/svg"
   xmlns:svg="http://www.w3.org/2000/svg"
   xmlns:rdf="http://www.w3.org/1999/02/22-rdf-syntax-ns#"
   xmlns:cc="http://creativecommons.org/ns#"
   xmlns:dc="http://purl.org/dc/elements/1.1/">
  <metadata
     id="metadata9">
    <rdf:RDF>
      <cc:Work
         rdf:about="">
        <dc:format>image/svg+xml</dc:format>
        <dc:type
           rdf:resource="http://purl.org/dc/dcmitype/StillImage" />
      </cc:Work>
    </rdf:RDF>
  </metadata>
  <sodipodi:namedview
     pagecolor="#808080"
     bordercolor="#666666"
     borderopacity="1"
     objecttolerance="10"
     gridtolerance="10"
     guidetolerance="10"
     inkscape:pageopacity="0"
     inkscape:pageshadow="2"
     inkscape:window-width="1605"
     inkscape:window-height="1706"
     id="namedview7"
     showgrid="true"
     inkscape:zoom="16"
     inkscape:cx="8.0625"
     inkscape:cy="16.9375"
     inkscape:window-x="3664"
     inkscape:window-y="89"
     inkscape:window-maximized="0"
     inkscape:current-layer="svg5"
     inkscape:snap-bbox="true"
     inkscape:bbox-nodes="true"
     inkscape:snap-page="false"
     inkscape:pagecheckerboard="0"
     inkscape:snap-global="true"
     inkscape:object-nodes="false"
     inkscape:snap-nodes="false"
     inkscape:showpageshadow="0"
     inkscape:deskcolor="#d1d1d1">
    <inkscape:grid
       type="xygrid"
       id="grid825"
       originx="0"
       originy="0"
       spacingy="0.5"
       spacingx="0.5"
       units="px"
       visible="true"
       color="#404040"
       opacity="0.50196078"
       empcolor="#404040"
       empopacity="0.50196078" />
  </sodipodi:namedview>
  <defs
     id="defs3051">
    <rect
       x="-100"
       y="-85"
       width="160"
       height="160"
       id="rect7561" />
    <rect
       x="-20"
       y="3"
       width="103"
       height="43"
       id="rect5113" />
    <style
       type="text/css"
       id="current-color-scheme">&#10;      .ColorScheme-Text {&#10;        color:#232629;&#10;      }&#10;      </style>
  </defs>
  <path
     id="path2"
     style="color:#000000;font-size:40px;font-family:Rye;-inkscape-font-specification:'OpenSymbol, Normal';letter-spacing:0px;word-spacing:0px;white-space:pre;fill:#ffffff;fill-opacity:1;stroke-width:0.5;-inkscape-stroke:none"
     d="M 4.2568359 1.8662109 C 3.7528754 1.8662109 3.3688925 2.0289958 3.1054688 2.3535156 C 2.838218 2.6780346 2.7041016 3.0978692 2.7041016 3.6132812 C 2.7041016 4.029429 2.7296569 4.6038829 2.7792969 5.3369141 C 2.8251168 6.1043061 2.8476562 6.6787603 2.8476562 7.0605469 C 2.8476563 7.7851332 2 7.8105469 2 7.8105469 L 2 8 L 2 8.1894531 C 2 8.1894531 2.8476562 8.2148677 2.8476562 8.9394531 C 2.8476562 9.3212397 2.8251168 9.8956936 2.7792969 10.663086 C 2.7296569 11.396117 2.7041016 11.97057 2.7041016 12.386719 C 2.7041016 12.90213 2.838218 13.321967 3.1054688 13.646484 C 3.3688925 13.971005 3.7528754 14.133789 4.2568359 14.133789 L 4.8134766 14.133789 L 4.8134766 13.944336 C 4.0460823 13.944336 3.6621094 13.486602 3.6621094 12.570312 C 3.6621094 12.203797 3.6743556 11.653931 3.6972656 10.920898 C 3.7201756 10.180232 3.7314453 9.6283226 3.7314453 9.265625 C 3.7314453 8.7234869 3.5077755 8.2405264 3 8 C 3.5077755 7.7594736 3.7314453 7.2765132 3.7314453 6.734375 C 3.7314453 6.3716777 3.7201756 5.8197681 3.6972656 5.0791016 C 3.6743556 4.3460704 3.6621094 3.7962029 3.6621094 3.4296875 C 3.6621094 2.5133987 4.0460823 2.0556641 4.8134766 2.0556641 L 4.8134766 1.8662109 L 4.2568359 1.8662109 z M 11.186523 1.8662109 L 11.186523 2.0556641 C 11.953918 2.0556641 12.337891 2.5133987 12.337891 3.4296875 C 12.337891 3.7962029 12.325644 4.3460704 12.302734 5.0791016 C 12.279824 5.8197681 12.268555 6.3716777 12.268555 6.734375 C 12.268555 7.2765132 12.492225 7.7594736 13 8 C 12.492225 8.2405264 12.268555 8.7234868 12.268555 9.265625 C 12.268555 9.6283223 12.279824 10.180232 12.302734 10.920898 C 12.325644 11.653931 12.337891 12.203797 12.337891 12.570312 C 12.337891 13.486602 11.953918 13.944336 11.186523 13.944336 L 11.186523 14.133789 L 11.743164 14.133789 C 12.247125 14.133789 12.631108 13.971005 12.894531 13.646484 C 13.161782 13.321967 13.295898 12.90213 13.295898 12.386719 C 13.295898 11.97057 13.270343 11.396117 13.220703 10.663086 C 13.174883 9.8956937 13.152344 9.3212397 13.152344 8.9394531 C 13.152344 8.2148675 14 8.1894531 14 8.1894531 L 14 8 L 14 7.8105469 C 14 7.8105469 13.152344 7.7851328 13.152344 7.0605469 C 13.152344 6.6787603 13.174883 6.1043061 13.220703 5.3369141 C 13.270343 4.6038829 13.295898 4.029429 13.295898 3.6132812 C 13.295898 3.0978692 13.161782 2.6780346 12.894531 2.3535156 C 12.631108 2.0289958 12.247125 1.8662109 11.743164 1.8662109 L 11.186523 1.8662109 z M 8.4082031 3.4892578 C 7.7592241 3.6300003 7.1498899 3.7352928 6.5791016 3.8056641 L 6.5791016 3.9941406 L 6.6845703 3.9941406 C 7.1380735 3.9941406 7.3691342 4.0916339 7.3769531 4.2871094 C 7.3613131 4.4200327 7.2950201 4.6930138 7.1777344 5.1074219 C 7.068268 5.514011 7.0048954 5.7567707 6.9892578 5.8349609 L 5.5 11.5 L 6.3798828 11.5 L 6.9423828 9.3886719 L 7.4355469 9.0136719 C 7.7092128 9.7564791 7.9587952 10.334616 8.1855469 10.749023 C 8.4122987 11.155613 8.584863 11.406172 8.7021484 11.5 C 8.8194337 11.58601 8.9403255 11.628906 9.0654297 11.628906 C 9.2999998 11.628906 9.5076632 11.539209 9.6875 11.359375 C 9.8751568 11.179537 10.101342 10.843185 10.367188 10.350586 L 10.191406 10.22168 L 10.015625 10.526367 C 9.8279707 10.854766 9.6515045 11.018555 9.4873047 11.018555 C 9.3543817 11.018555 9.23349 10.924961 9.1240234 10.737305 C 9.0145569 10.54183 8.8000723 10.072885 8.4794922 9.3300781 C 8.3231115 8.9782215 8.1973438 8.6925654 8.1035156 8.4736328 C 8.9557895 7.7151874 9.5388018 7.2306449 9.8515625 7.0195312 C 10.164324 6.8005983 10.461678 6.6836068 10.743164 6.6679688 L 10.743164 6.4804688 L 8.5966797 6.4804688 L 8.5966797 6.6679688 L 8.7841797 6.6679688 C 9.0891216 6.6679688 9.2412109 6.7381645 9.2412109 6.8789062 C 9.2412109 7.0431057 8.9721296 7.3560603 8.4326172 7.8173828 C 7.9009235 8.2787048 7.4427022 8.6423567 7.0595703 8.9082031 L 8.4677734 3.5478516 L 8.4082031 3.4892578 z " />
</svg>
