<?xml version="1.0" encoding="UTF-8" standalone="no"?>
<svg
   viewBox="0 0 16 16"
   version="1.1"
   id="svg5"
   sodipodi:docname="text_hashtag_off.svg"
   inkscape:version="1.3-beta (cedbd6c, 2023-05-28)"
   width="32"
   height="32"
   xmlns:inkscape="http://www.inkscape.org/namespaces/inkscape"
   xmlns:sodipodi="http://sodipodi.sourceforge.net/DTD/sodipodi-0.dtd"
   xmlns="http://www.w3.org/2000/svg"
   xmlns:svg="http://www.w3.org/2000/svg"
   xmlns:rdf="http://www.w3.org/1999/02/22-rdf-syntax-ns#"
   xmlns:cc="http://creativecommons.org/ns#"
   xmlns:dc="http://purl.org/dc/elements/1.1/">
  <metadata
     id="metadata9">
    <rdf:RDF>
      <cc:Work
         rdf:about="">
        <dc:format>image/svg+xml</dc:format>
        <dc:type
           rdf:resource="http://purl.org/dc/dcmitype/StillImage" />
      </cc:Work>
    </rdf:RDF>
  </metadata>
  <sodipodi:namedview
     pagecolor="#808080"
     bordercolor="#666666"
     borderopacity="1"
     objecttolerance="10"
     gridtolerance="10"
     guidetolerance="10"
     inkscape:pageopacity="0"
     inkscape:pageshadow="2"
     inkscape:window-width="1912"
     inkscape:window-height="2056"
     id="namedview7"
     showgrid="true"
     inkscape:zoom="16"
     inkscape:cx="24.3125"
     inkscape:cy="18.21875"
     inkscape:window-x="1920"
     inkscape:window-y="0"
     inkscape:window-maximized="0"
     inkscape:current-layer="svg5"
     inkscape:snap-bbox="true"
     inkscape:bbox-nodes="true"
     inkscape:snap-page="true"
     inkscape:showpageshadow="0"
     inkscape:pagecheckerboard="0"
     inkscape:deskcolor="#d1d1d1">
    <inkscape:grid
       id="grid1"
       units="px"
       originx="0"
       originy="0"
       spacingx="0.5"
       spacingy="0.5"
       empcolor="#404040"
       empopacity="0.50196078"
       color="#404040"
       opacity="0.50196078"
       empspacing="5"
       dotted="false"
       gridanglex="30"
       gridanglez="30"
       visible="true" />
  </sodipodi:namedview>
  <defs
     id="defs3051">
    <style
       type="text/css"
       id="current-color-scheme">&#10;      .ColorScheme-Text {&#10;        color:#232629;&#10;      }&#10;      </style>
  </defs>
  <path
     id="path1"
     style="fill:#ffffff;fill-opacity:1;stroke:none;stroke-width:3"
     d="M 14.020508 1.9794922 L 10.222656 5.7773438 L 9 7 L 7 9 L 5.7773438 10.222656 L 2 14 L 2.7070312 14.707031 L 5.6210938 11.792969 L 5.5 13 L 6.5 13 L 6.7001953 11 L 6.7314453 10.682617 L 7.4140625 10 L 8.7998047 10 L 8.7001953 11 L 8.5 13 L 9.5 13 L 9.7001953 11 L 9.7998047 10 L 10.799805 10 L 12.799805 10 L 12.900391 9 L 10.900391 9 L 9.9003906 9 L 10.064453 7.3496094 L 10.414062 7 L 11.099609 7 L 13.099609 7 L 13.200195 6 L 11.414062 6 L 14.727539 2.6865234 L 14.020508 1.9794922 z M 6.5 3 L 6.25 5.5 L 6.2001953 6 L 5.7001953 6 L 3.2001953 6 L 3.0996094 7 L 5.5996094 7 L 6.0996094 7 L 5.9355469 8.6503906 L 7.0458984 7.5400391 L 7.0996094 7 L 7.5859375 7 L 8.5859375 6 L 7.2001953 6 L 7.25 5.5 L 7.5 3 L 6.5 3 z M 9.5 3 L 9.2685547 5.3173828 L 10.378906 4.2070312 L 10.5 3 L 9.5 3 z M 8.9541016 8.4599609 L 8.9003906 9 L 8.4140625 9 L 8.9541016 8.4599609 z M 2.9003906 9 L 2.7998047 10 L 4.5859375 10 L 5.5859375 9 L 5.4003906 9 L 2.9003906 9 z " />
</svg>
