<?xml version="1.0" encoding="UTF-8" standalone="no"?>
<svg
   viewBox="0 0 16 16"
   version="1.1"
   id="svg5"
   sodipodi:docname="view_text_highlight.svg"
   inkscape:version="1.3-beta (cedbd6c, 2023-05-28)"
   width="32"
   height="32"
   xmlns:inkscape="http://www.inkscape.org/namespaces/inkscape"
   xmlns:sodipodi="http://sodipodi.sourceforge.net/DTD/sodipodi-0.dtd"
   xmlns="http://www.w3.org/2000/svg"
   xmlns:svg="http://www.w3.org/2000/svg"
   xmlns:rdf="http://www.w3.org/1999/02/22-rdf-syntax-ns#"
   xmlns:cc="http://creativecommons.org/ns#"
   xmlns:dc="http://purl.org/dc/elements/1.1/">
  <metadata
     id="metadata9">
    <rdf:RDF>
      <cc:Work
         rdf:about="">
        <dc:format>image/svg+xml</dc:format>
        <dc:type
           rdf:resource="http://purl.org/dc/dcmitype/StillImage" />
      </cc:Work>
    </rdf:RDF>
  </metadata>
  <sodipodi:namedview
     pagecolor="#808080"
     bordercolor="#666666"
     borderopacity="1"
     objecttolerance="10"
     gridtolerance="10"
     guidetolerance="10"
     inkscape:pageopacity="0"
     inkscape:pageshadow="2"
     inkscape:window-width="1912"
     inkscape:window-height="1694"
     id="namedview7"
     showgrid="true"
     inkscape:zoom="22.627417"
     inkscape:cx="20.152543"
     inkscape:cy="13.987456"
     inkscape:window-x="1920"
     inkscape:window-y="0"
     inkscape:window-maximized="0"
     inkscape:current-layer="svg5"
     inkscape:snap-bbox="true"
     inkscape:bbox-nodes="true"
     inkscape:snap-page="true"
     inkscape:document-rotation="0"
     inkscape:snap-bbox-edge-midpoints="true"
     inkscape:showpageshadow="0"
     inkscape:pagecheckerboard="0"
     inkscape:deskcolor="#d1d1d1">
    <inkscape:grid
       id="grid1"
       units="px"
       originx="0"
       originy="0"
       spacingx="0.5"
       spacingy="0.5"
       empcolor="#404040"
       empopacity="0.50196078"
       color="#404040"
       opacity="0.501961"
       empspacing="5"
       dotted="false"
       gridanglex="30"
       gridanglez="30"
       visible="true" />
  </sodipodi:namedview>
  <defs
     id="defs3051">
    <style
       type="text/css"
       id="current-color-scheme">&#10;      .ColorScheme-Text {&#10;        color:#232629;&#10;      }&#10;      </style>
  </defs>
  <g
     id="g12">
    <path
       style="fill:#ffffff;fill-opacity:0.25;stroke:none;stroke-width:1"
       d="m 2.0000002,4 v 3 h 2 0.9999999 9.0000009 V 4 H 5.0000001 4.0000002 Z"
       id="path9" />
    <path
       id="path27"
       style="fill:#ffffff;fill-opacity:1;stroke:none;stroke-width:1"
       d="M 3 2 L 3 3 L 4 3 L 5 3 L 13 3 L 13 2 L 5 2 L 4 2 L 3 2 z M 3 5 L 3 6 L 4 6 L 5 6 L 13 6 L 13 5 L 5 5 L 4 5 L 3 5 z M 3 8 L 3 9 L 4 9 L 5 9 L 13 9 L 13 8 L 5 8 L 4 8 L 3 8 z M 3 11 L 3 12 L 4 12 L 5 12 L 13 12 L 13 11 L 5 11 L 4 11 L 3 11 z " />
    <path
       style="fill:#ffffff;fill-opacity:0.5;stroke:none;stroke-width:0.999999"
       d="m 2.5,4.5 v 2 H 4.3333332 5.2499997 13.5 v -2 H 5.2499997 4.3333332 Z"
       id="path11" />
  </g>
</svg>
