<?xml version="1.0" encoding="UTF-8" standalone="no"?>
<svg
   viewBox="0 0 16 16"
   version="1.1"
   id="svg5"
   sodipodi:docname="view_text_linenumber.svg"
   inkscape:version="1.3-beta (cedbd6c, 2023-05-28)"
   width="32"
   height="32"
   xmlns:inkscape="http://www.inkscape.org/namespaces/inkscape"
   xmlns:sodipodi="http://sodipodi.sourceforge.net/DTD/sodipodi-0.dtd"
   xmlns="http://www.w3.org/2000/svg"
   xmlns:svg="http://www.w3.org/2000/svg"
   xmlns:rdf="http://www.w3.org/1999/02/22-rdf-syntax-ns#"
   xmlns:cc="http://creativecommons.org/ns#"
   xmlns:dc="http://purl.org/dc/elements/1.1/">
  <metadata
     id="metadata9">
    <rdf:RDF>
      <cc:Work
         rdf:about="">
        <dc:format>image/svg+xml</dc:format>
        <dc:type
           rdf:resource="http://purl.org/dc/dcmitype/StillImage" />
      </cc:Work>
    </rdf:RDF>
  </metadata>
  <sodipodi:namedview
     pagecolor="#808080"
     bordercolor="#666666"
     borderopacity="1"
     objecttolerance="10"
     gridtolerance="10"
     guidetolerance="10"
     inkscape:pageopacity="0"
     inkscape:pageshadow="2"
     inkscape:window-width="1912"
     inkscape:window-height="1694"
     id="namedview7"
     showgrid="true"
     inkscape:zoom="32"
     inkscape:cx="-8.4375"
     inkscape:cy="13.0625"
     inkscape:window-x="1920"
     inkscape:window-y="0"
     inkscape:window-maximized="0"
     inkscape:current-layer="svg5"
     inkscape:snap-bbox="true"
     inkscape:bbox-nodes="true"
     inkscape:snap-page="true"
     inkscape:document-rotation="0"
     inkscape:snap-bbox-edge-midpoints="true"
     inkscape:showpageshadow="0"
     inkscape:pagecheckerboard="0"
     inkscape:deskcolor="#d1d1d1">
    <inkscape:grid
       id="grid1"
       units="px"
       originx="0"
       originy="0"
       spacingx="0.5"
       spacingy="0.5"
       empcolor="#404040"
       empopacity="0.50196078"
       color="#404040"
       opacity="0.501961"
       empspacing="5"
       dotted="false"
       gridanglex="30"
       gridanglez="30"
       visible="true" />
  </sodipodi:namedview>
  <defs
     id="defs3051">
    <style
       type="text/css"
       id="current-color-scheme">&#10;      .ColorScheme-Text {&#10;        color:#232629;&#10;      }&#10;      </style>
  </defs>
  <path
     id="path45"
     style="fill:#ffffff;fill-opacity:1;stroke:none;stroke-width:0.999997"
     d="M 1.5 1 L 1 2 L 1.5 2 L 1.5 3 L 1.5 4 L 1.5 5 L 2.5 5 L 2.5 4 L 2.5 3 L 2.5 2 L 2.5 1 L 1.5 1 z M 4 2 L 4 3 L 4 4 L 7 4 L 7 2 L 5 2 L 4 2 z M 7.5 2 L 7.5 4 L 9 4 L 10 4 L 13 4 L 14 4 L 14 3 L 14 2 L 7.5 2 z M 1.9746094 6 C 1.4363644 6.0137586 1 6.4585948 1 7 L 2 7 L 2 7.5 C 1.4500011 7.5 1 7.9500011 1 8.5 L 1 9 L 1 10 L 2 10 L 3 10 L 3 9 L 2 9 L 2 8.5 C 2.5499989 8.5 3 8.0499989 3 7.5 L 3 7 C 3 6.4500011 2.5499987 6 2 6 C 1.99141 6 1.983153 5.9997816 1.9746094 6 z M 4 7 L 4 8 L 4 9 L 9 9 L 9 7 L 4 7 z M 9.5 7 L 9.5 9 L 14 9 L 14 8 L 14 7 L 9.5 7 z M 1.9746094 11 C 1.4363644 11.013759 1 11.458595 1 12 L 2 12 L 2 12.5 L 1.5 12.5 L 1.5 13.5 L 2 13.5 L 2 14 L 1 14 C 1 14.549998 1.4500011 15 2 15 C 2.5499989 15 3 14.549998 3 14 L 3 13.5 C 3 13.318278 2.9508605 13.147265 2.8652344 13 C 2.9508605 12.852735 3 12.681722 3 12.5 L 3 12 C 3 11.450002 2.5499987 11 2 11 C 1.99141 11 1.983153 10.999782 1.9746094 11 z M 4 12 L 4 13 L 4 14 L 6.5 14 L 6.5 12 L 4 12 z M 7 12 L 7 14 L 11.5 14 L 11.5 12 L 7 12 z M 12 12 L 12 14 L 14 14 L 14 13 L 14 12 L 12 12 z " />
</svg>
