<?xml version="1.0" encoding="UTF-8" standalone="no"?>
<svg
   viewBox="0 0 16 16"
   version="1.1"
   id="svg5"
   sodipodi:docname="view_text_spaces.svg"
   inkscape:version="1.3-beta (cedbd6c, 2023-05-28)"
   width="32"
   height="32"
   xmlns:inkscape="http://www.inkscape.org/namespaces/inkscape"
   xmlns:sodipodi="http://sodipodi.sourceforge.net/DTD/sodipodi-0.dtd"
   xmlns="http://www.w3.org/2000/svg"
   xmlns:svg="http://www.w3.org/2000/svg"
   xmlns:rdf="http://www.w3.org/1999/02/22-rdf-syntax-ns#"
   xmlns:cc="http://creativecommons.org/ns#"
   xmlns:dc="http://purl.org/dc/elements/1.1/">
  <metadata
     id="metadata9">
    <rdf:RDF>
      <cc:Work
         rdf:about="">
        <dc:format>image/svg+xml</dc:format>
        <dc:type
           rdf:resource="http://purl.org/dc/dcmitype/StillImage" />
      </cc:Work>
    </rdf:RDF>
  </metadata>
  <sodipodi:namedview
     pagecolor="#808080"
     bordercolor="#666666"
     borderopacity="1"
     objecttolerance="10"
     gridtolerance="10"
     guidetolerance="10"
     inkscape:pageopacity="0"
     inkscape:pageshadow="2"
     inkscape:window-width="1912"
     inkscape:window-height="1694"
     id="namedview7"
     showgrid="true"
     inkscape:zoom="32"
     inkscape:cx="8.0625"
     inkscape:cy="12.09375"
     inkscape:window-x="1920"
     inkscape:window-y="0"
     inkscape:window-maximized="0"
     inkscape:current-layer="svg5"
     inkscape:snap-bbox="true"
     inkscape:bbox-nodes="true"
     inkscape:snap-page="true"
     inkscape:document-rotation="0"
     inkscape:snap-bbox-edge-midpoints="true"
     inkscape:showpageshadow="0"
     inkscape:pagecheckerboard="0"
     inkscape:deskcolor="#d1d1d1">
    <inkscape:grid
       id="grid1"
       units="px"
       originx="0"
       originy="0"
       spacingx="0.5"
       spacingy="0.5"
       empcolor="#404040"
       empopacity="0.50196078"
       color="#404040"
       opacity="0.501961"
       empspacing="5"
       dotted="false"
       gridanglex="30"
       gridanglez="30"
       visible="true" />
  </sodipodi:namedview>
  <defs
     id="defs3051">
    <style
       type="text/css"
       id="current-color-scheme">&#10;      .ColorScheme-Text {&#10;        color:#232629;&#10;      }&#10;      </style>
  </defs>
  <g
     id="g40"
     style="opacity:1;fill:#ffffff">
    <path
       id="path27"
       style="fill:#ffffff;fill-opacity:1;stroke:none;stroke-width:1"
       d="m 2,2 v 1 h 2 1 9 V 2 H 5 4 Z m 4,2 v 1 h 5 1 V 4 h -1 z m 4,2 v 1 h 4 V 6 Z M 6,8 v 1 h 5 1 1 V 8 h -1 -1 z m -4,2 v 1 h 7 1 2 V 10 H 10 9 Z m 4,2 v 1 h 4 v -1 z" />
    <path
       id="path40"
       style="fill:#ffffff;fill-opacity:0.5;stroke:none"
       d="M 2 4 L 2 5 L 3 5 L 3 4 L 2 4 z M 4 4 L 4 5 L 5 5 L 5 4 L 4 4 z M 13 4 L 13 5 L 14 5 L 14 4 L 13 4 z M 2 6 L 2 7 L 3 7 L 3 6 L 2 6 z M 4 6 L 4 7 L 5 7 L 5 6 L 4 6 z M 6 6 L 6 7 L 7 7 L 7 6 L 6 6 z M 8 6 L 8 7 L 9 7 L 9 6 L 8 6 z M 2 8 L 2 9 L 3 9 L 3 8 L 2 8 z M 4 8 L 4 9 L 5 9 L 5 8 L 4 8 z M 13 10 L 13 11 L 14 11 L 14 10 L 13 10 z M 2 12 L 2 13 L 3 13 L 3 12 L 2 12 z M 4 12 L 4 13 L 5 13 L 5 12 L 4 12 z M 11 12 L 11 13 L 12 13 L 12 12 L 11 12 z M 13 12 L 13 13 L 14 13 L 14 12 L 13 12 z " />
  </g>
</svg>
