<?xml version="1.0" encoding="UTF-8" standalone="no"?>
<svg
   viewBox="0 0 16 16"
   version="1.1"
   id="svg5"
   sodipodi:docname="view_text_indent.svg"
   inkscape:version="1.3-beta (cedbd6c, 2023-05-28)"
   width="32"
   height="32"
   xmlns:inkscape="http://www.inkscape.org/namespaces/inkscape"
   xmlns:sodipodi="http://sodipodi.sourceforge.net/DTD/sodipodi-0.dtd"
   xmlns="http://www.w3.org/2000/svg"
   xmlns:svg="http://www.w3.org/2000/svg"
   xmlns:rdf="http://www.w3.org/1999/02/22-rdf-syntax-ns#"
   xmlns:cc="http://creativecommons.org/ns#"
   xmlns:dc="http://purl.org/dc/elements/1.1/">
  <metadata
     id="metadata9">
    <rdf:RDF>
      <cc:Work
         rdf:about="">
        <dc:format>image/svg+xml</dc:format>
        <dc:type
           rdf:resource="http://purl.org/dc/dcmitype/StillImage" />
      </cc:Work>
    </rdf:RDF>
  </metadata>
  <sodipodi:namedview
     pagecolor="#808080"
     bordercolor="#666666"
     borderopacity="1"
     objecttolerance="10"
     gridtolerance="10"
     guidetolerance="10"
     inkscape:pageopacity="0"
     inkscape:pageshadow="2"
     inkscape:window-width="1912"
     inkscape:window-height="1694"
     id="namedview7"
     showgrid="true"
     inkscape:zoom="32"
     inkscape:cx="8.0625"
     inkscape:cy="12.09375"
     inkscape:window-x="1920"
     inkscape:window-y="0"
     inkscape:window-maximized="0"
     inkscape:current-layer="svg5"
     inkscape:snap-bbox="true"
     inkscape:bbox-nodes="true"
     inkscape:snap-page="true"
     inkscape:document-rotation="0"
     inkscape:snap-bbox-edge-midpoints="true"
     inkscape:showpageshadow="0"
     inkscape:pagecheckerboard="0"
     inkscape:deskcolor="#d1d1d1">
    <inkscape:grid
       id="grid1"
       units="px"
       originx="0"
       originy="0"
       spacingx="0.5"
       spacingy="0.5"
       empcolor="#404040"
       empopacity="0.50196078"
       color="#404040"
       opacity="0.501961"
       empspacing="5"
       dotted="false"
       gridanglex="30"
       gridanglez="30"
       visible="true" />
  </sodipodi:namedview>
  <defs
     id="defs3051">
    <style
       type="text/css"
       id="current-color-scheme">&#10;      .ColorScheme-Text {&#10;        color:#232629;&#10;      }&#10;      </style>
  </defs>
  <g
     id="g58">
    <path
       id="path27"
       style="fill:#ffffff;fill-opacity:1;stroke:none;stroke-width:1"
       d="m 2,2 v 1 h 2 1 9 V 2 H 5 4 Z m 4,2 v 1 h 5 1 V 4 h -1 z m 4,2 v 1 h 4 V 6 Z M 6,8 v 1 h 5 1 1 V 8 h -1 -1 z m -4,2 v 1 h 7 1 2 V 10 H 10 9 Z m 4,2 v 1 h 4 v -1 z" />
    <path
       id="path50"
       style="fill:#ffffff;fill-opacity:0.5;stroke:none;stroke-width:1"
       d="M 2 3 L 2 10 L 3 10 L 3 3 L 2 3 z M 6 3 L 6 4 L 7 4 L 7 3 L 6 3 z M 6 5 L 6 8 L 7 8 L 7 5 L 6 5 z M 10 5 L 10 6 L 11 6 L 11 5 L 10 5 z M 10 7 L 10 8 L 11 8 L 11 7 L 10 7 z M 6 9 L 6 10 L 7 10 L 7 9 L 6 9 z M 2 11 L 2 13 L 2 14 L 3 14 L 3 13 L 3 11 L 2 11 z M 6 11 L 6 12 L 7 12 L 7 11 L 6 11 z M 6 13 L 6 14 L 7 14 L 7 13 L 6 13 z " />
  </g>
</svg>
