<?xml version="1.0" encoding="UTF-8" standalone="no"?>
<svg
   viewBox="0 0 16 16"
   version="1.1"
   id="svg5"
   sodipodi:docname="view_text_rightlimit.svg"
   inkscape:version="1.3-beta (cedbd6c, 2023-05-28)"
   width="32"
   height="32"
   xmlns:inkscape="http://www.inkscape.org/namespaces/inkscape"
   xmlns:sodipodi="http://sodipodi.sourceforge.net/DTD/sodipodi-0.dtd"
   xmlns="http://www.w3.org/2000/svg"
   xmlns:svg="http://www.w3.org/2000/svg"
   xmlns:rdf="http://www.w3.org/1999/02/22-rdf-syntax-ns#"
   xmlns:cc="http://creativecommons.org/ns#"
   xmlns:dc="http://purl.org/dc/elements/1.1/">
  <metadata
     id="metadata9">
    <rdf:RDF>
      <cc:Work
         rdf:about="">
        <dc:format>image/svg+xml</dc:format>
        <dc:type
           rdf:resource="http://purl.org/dc/dcmitype/StillImage" />
      </cc:Work>
    </rdf:RDF>
  </metadata>
  <sodipodi:namedview
     pagecolor="#808080"
     bordercolor="#666666"
     borderopacity="1"
     objecttolerance="10"
     gridtolerance="10"
     guidetolerance="10"
     inkscape:pageopacity="0"
     inkscape:pageshadow="2"
     inkscape:window-width="1912"
     inkscape:window-height="1694"
     id="namedview7"
     showgrid="true"
     inkscape:zoom="22.627417"
     inkscape:cx="18.517359"
     inkscape:cy="17.567184"
     inkscape:window-x="1920"
     inkscape:window-y="0"
     inkscape:window-maximized="0"
     inkscape:current-layer="svg5"
     inkscape:snap-bbox="true"
     inkscape:bbox-nodes="true"
     inkscape:snap-page="true"
     inkscape:document-rotation="0"
     inkscape:snap-bbox-edge-midpoints="true"
     inkscape:showpageshadow="0"
     inkscape:pagecheckerboard="0"
     inkscape:deskcolor="#d1d1d1">
    <inkscape:grid
       id="grid1"
       units="px"
       originx="0"
       originy="0"
       spacingx="0.5"
       spacingy="0.5"
       empcolor="#404040"
       empopacity="0.50196078"
       color="#404040"
       opacity="0.501961"
       empspacing="5"
       dotted="false"
       gridanglex="30"
       gridanglez="30"
       visible="true" />
  </sodipodi:namedview>
  <defs
     id="defs3051">
    <style
       type="text/css"
       id="current-color-scheme">&#10;      .ColorScheme-Text {&#10;        color:#232629;&#10;      }&#10;      </style>
  </defs>
  <g
     id="g6">
    <path
       id="path5"
       style="fill:#ffffff;fill-opacity:1;stroke:none;stroke-width:2"
       d="M 4 4 L 4 6 L 8 6 L 10 6 L 28 6 L 28 4 L 10 4 L 8 4 L 4 4 z M 4 8 L 4 10 L 18 10 L 20 10 L 26 10 L 28 10 L 28 8 L 26 8 L 20 8 L 18 8 L 4 8 z M 4 12 L 4 14 L 18 14 L 20 14 L 26 14 L 28 14 L 28 12 L 26 12 L 20 12 L 18 12 L 4 12 z M 4 16 L 4 18 L 18 18 L 20 18 L 26 18 L 28 18 L 28 16 L 26 16 L 20 16 L 18 16 L 4 16 z M 4 20 L 4 22 L 18 22 L 20 22 L 26 22 L 28 22 L 28 20 L 26 20 L 20 20 L 18 20 L 4 20 z M 4 24 L 4 26 L 8 26 L 8 24 L 4 24 z "
       transform="scale(0.5)" />
    <path
       style="fill:#ffffff;fill-opacity:0.5;stroke:none;stroke-width:1"
       d="m 11,15 h 1 V 12.666667 11.5 1 h -1 v 10.5 1.166667 z"
       id="path6" />
  </g>
</svg>
