<?xml version="1.0" encoding="UTF-8" standalone="no"?>
<svg
   viewBox="0 0 32 32"
   version="1.1"
   id="svg5"
   sodipodi:docname="color_opacity.svg"
   inkscape:version="1.2.2 (b0a8486, 2022-12-01)"
   width="32"
   height="32"
   xmlns:inkscape="http://www.inkscape.org/namespaces/inkscape"
   xmlns:sodipodi="http://sodipodi.sourceforge.net/DTD/sodipodi-0.dtd"
   xmlns="http://www.w3.org/2000/svg"
   xmlns:svg="http://www.w3.org/2000/svg"
   xmlns:rdf="http://www.w3.org/1999/02/22-rdf-syntax-ns#"
   xmlns:cc="http://creativecommons.org/ns#"
   xmlns:dc="http://purl.org/dc/elements/1.1/">
  <metadata
     id="metadata9">
    <rdf:RDF>
      <cc:Work
         rdf:about="">
        <dc:format>image/svg+xml</dc:format>
        <dc:type
           rdf:resource="http://purl.org/dc/dcmitype/StillImage" />
      </cc:Work>
    </rdf:RDF>
  </metadata>
  <sodipodi:namedview
     pagecolor="#ffffff"
     bordercolor="#666666"
     borderopacity="1"
     objecttolerance="10"
     gridtolerance="10"
     guidetolerance="10"
     inkscape:pageopacity="0"
     inkscape:pageshadow="2"
     inkscape:window-width="1912"
     inkscape:window-height="2056"
     id="namedview7"
     showgrid="true"
     inkscape:zoom="41.7193"
     inkscape:cx="14.022287"
     inkscape:cy="19.40349"
     inkscape:window-x="3840"
     inkscape:window-y="0"
     inkscape:window-maximized="0"
     inkscape:current-layer="g21688"
     inkscape:snap-bbox="true"
     inkscape:bbox-nodes="true"
     inkscape:snap-page="true"
     inkscape:showpageshadow="0"
     inkscape:pagecheckerboard="0"
     inkscape:deskcolor="#d1d1d1">
    <inkscape:grid
       type="xygrid"
       id="grid1892"
       units="px"
       spacingx="1"
       spacingy="1"
       originx="0"
       originy="0" />
  </sodipodi:namedview>
  <defs
     id="defs3051">
    <style
       type="text/css"
       id="current-color-scheme">
      .ColorScheme-Text {
        color:#232629;
      }
      </style>
  </defs>
  <g
     id="g21688"
     style="opacity:0.5">
    <g
       id="g23293"
       style="opacity:1">
      <g
         id="g23285">
        <path
           id="path741"
           style="opacity:1;fill:#b2b2b2;fill-opacity:1;stroke:none;stroke-width:2.00001"
           d="M 4,2 C 2.900002,2 2,2.9000022 2,4 V 8.9999999 H 9 V 2 Z M 9,8.9999999 V 16 h 7 V 8.9999999 Z m 7,0 h 7 V 2 h -7 z m 7,0 V 16 h 7 V 8.9999999 Z M 23,16 h -7 v 7 h 7 z m 0,7 v 7 h 5 c 1.099998,0 2,-0.900002 2,-2 v -5 z m -7,0 H 9 v 7 h 7 z M 9,23 V 16 H 2 v 7 z" />
        <path
           id="path72"
           style="opacity:1;fill:#d9d9d9;fill-opacity:1;stroke-width:1"
           d="m 9,2 v 7 h 7 V 2 Z m 7,7 v 7 h 7 V 9 Z m 7,0 h 7 V 4 C 30,2.900001 29.099998,2 28,2 h -5 z m 0,7 v 7 h 7 v -7 z m 0,7 h -7 v 7 h 7 z m -7,0 V 16 H 9 v 7 z M 9,23 H 2 v 5 c 0,1.099999 0.900001,2 2,2 H 9 Z M 9,16 V 9 H 2 v 7 z" />
      </g>
      <g
         id="g23256"
         transform="translate(21.412109,-1.412109)">
        <path
           id="path20206"
           style="opacity:1;fill:#ffffff;fill-opacity:0.4;stroke:none;stroke-width:2.00001"
           d="m 8,4 -26.824218,26.824218 c 0.3625,0.3625 0.862111,0.587891 1.412109,0.587891 h 24 c 1.099996,0 2,-0.900004 2,-2 v -5 -7 -7 -4.9999996 C 8.587891,4.862111 8.3625,4.3624999 8,4 Z" />
        <path
           id="path21681"
           style="opacity:1;fill:#000000;fill-opacity:0.15000001;stroke:none;stroke-width:2.00001"
           d="M -18.824218,30.824218 8,4 C 7.6375,3.6375 7.137889,3.412109 6.587891,3.412109 h -24 c -1.099996,0 -2,0.900004 -2,2 v 5 7 7 5 c 0,0.549998 0.225391,1.049609 0.587891,1.412109 z" />
      </g>
    </g>
  </g>
</svg>
