<?xml version="1.0" encoding="UTF-8" standalone="no"?>
<svg
   viewBox="0 0 16 16"
   version="1.1"
   id="svg5"
   sodipodi:docname="edit_text_line_duplicate.svg"
   inkscape:version="1.3-beta (cedbd6c, 2023-05-28)"
   width="32"
   height="32"
   xmlns:inkscape="http://www.inkscape.org/namespaces/inkscape"
   xmlns:sodipodi="http://sodipodi.sourceforge.net/DTD/sodipodi-0.dtd"
   xmlns="http://www.w3.org/2000/svg"
   xmlns:svg="http://www.w3.org/2000/svg"
   xmlns:rdf="http://www.w3.org/1999/02/22-rdf-syntax-ns#"
   xmlns:cc="http://creativecommons.org/ns#"
   xmlns:dc="http://purl.org/dc/elements/1.1/">
  <metadata
     id="metadata9">
    <rdf:RDF>
      <cc:Work
         rdf:about="">
        <dc:format>image/svg+xml</dc:format>
        <dc:type
           rdf:resource="http://purl.org/dc/dcmitype/StillImage" />
      </cc:Work>
    </rdf:RDF>
  </metadata>
  <sodipodi:namedview
     pagecolor="#808080"
     bordercolor="#666666"
     borderopacity="1"
     objecttolerance="10"
     gridtolerance="10"
     guidetolerance="10"
     inkscape:pageopacity="0"
     inkscape:pageshadow="2"
     inkscape:window-width="1912"
     inkscape:window-height="1694"
     id="namedview7"
     showgrid="true"
     inkscape:zoom="32"
     inkscape:cx="6.5625"
     inkscape:cy="15.765625"
     inkscape:window-x="1920"
     inkscape:window-y="0"
     inkscape:window-maximized="0"
     inkscape:current-layer="svg5"
     inkscape:snap-bbox="true"
     inkscape:bbox-nodes="true"
     inkscape:snap-page="true"
     inkscape:document-rotation="0"
     inkscape:snap-bbox-edge-midpoints="true"
     inkscape:showpageshadow="0"
     inkscape:pagecheckerboard="0"
     inkscape:deskcolor="#d1d1d1">
    <inkscape:grid
       id="grid1"
       units="px"
       originx="0"
       originy="0"
       spacingx="0.5"
       spacingy="0.5"
       empcolor="#404040"
       empopacity="0.50196078"
       color="#404040"
       opacity="0.501961"
       empspacing="5"
       dotted="false"
       gridanglex="30"
       gridanglez="30"
       visible="true" />
  </sodipodi:namedview>
  <defs
     id="defs3051">
    <style
       type="text/css"
       id="current-color-scheme">&#10;      .ColorScheme-Text {&#10;        color:#232629;&#10;      }&#10;      </style>
  </defs>
  <g
     id="g15"
     style="opacity:0.5">
    <path
       id="path11"
       style="fill:#ffffff;fill-opacity:1;stroke:none;stroke-width:1"
       d="M 2 2 L 2 3 L 4 3 L 5 3 L 9 3 L 10 3 L 11 3 L 11 2 L 10 2 L 9 2 L 5 2 L 4 2 L 2 2 z M 2 4 L 2 5 L 9 5 L 10 5 L 11 5 L 11 4 L 10 4 L 9 4 L 2 4 z M 11.5 4 L 11.5 7 L 12.5 7 L 12.5 8 L 12.5 9 L 13.5 9 L 14.5 9 L 15.5 9 L 15.5 6 L 14.5 6 L 14.5 4 L 13.5 4 L 12.5 4 L 11.5 4 z M 12.5 5 L 13.5 5 L 13.5 6 L 12.5 6 L 12.5 5 z M 13.5 7 L 14.5 7 L 14.5 8 L 13.5 8 L 13.5 7 z M 2 8 L 2 9 L 8.5 9 L 9 9 L 9.5 9 L 10.5 9 L 11 9 L 11 8 L 10.5 8 L 9.5 8 L 9 8 L 8.5 8 L 2 8 z M 2 10 L 2 11 L 9 11 L 9.5 11 L 10 11 L 10.5 11 L 11 11 L 11 10 L 10.5 10 L 10 10 L 9.5 10 L 9 10 L 2 10 z M 2 12 L 2 13 L 4 13 L 4 12 L 2 12 z " />
    <path
       id="path7"
       style="fill:#ffffff;fill-opacity:0.5;stroke:none;stroke-width:1"
       d="m 2,6 v 1 h 1 7 1 V 6 H 10 3 Z" />
  </g>
</svg>
