<?xml version="1.0" encoding="UTF-8" standalone="no"?>
<svg
   viewBox="0 0 16 16"
   version="1.1"
   id="svg6"
   sodipodi:docname="file_batch.svg"
   inkscape:version="1.3-beta (cedbd6c, 2023-05-28)"
   width="32"
   height="32"
   xmlns:inkscape="http://www.inkscape.org/namespaces/inkscape"
   xmlns:sodipodi="http://sodipodi.sourceforge.net/DTD/sodipodi-0.dtd"
   xmlns="http://www.w3.org/2000/svg"
   xmlns:svg="http://www.w3.org/2000/svg"
   xmlns:rdf="http://www.w3.org/1999/02/22-rdf-syntax-ns#"
   xmlns:cc="http://creativecommons.org/ns#"
   xmlns:dc="http://purl.org/dc/elements/1.1/">
  <metadata
     id="metadata10">
    <rdf:RDF>
      <cc:Work
         rdf:about="">
        <dc:format>image/svg+xml</dc:format>
        <dc:type
           rdf:resource="http://purl.org/dc/dcmitype/StillImage" />
      </cc:Work>
    </rdf:RDF>
  </metadata>
  <sodipodi:namedview
     pagecolor="#808080"
     bordercolor="#666666"
     borderopacity="1"
     objecttolerance="10"
     gridtolerance="10"
     guidetolerance="10"
     inkscape:pageopacity="0"
     inkscape:pageshadow="2"
     inkscape:window-width="1912"
     inkscape:window-height="2056"
     id="namedview8"
     showgrid="true"
     inkscape:snap-page="true"
     inkscape:zoom="32"
     inkscape:cx="43.5625"
     inkscape:cy="12.4375"
     inkscape:window-x="3840"
     inkscape:window-y="0"
     inkscape:window-maximized="0"
     inkscape:current-layer="svg6"
     inkscape:pagecheckerboard="0"
     showguides="false"
     inkscape:showpageshadow="0"
     inkscape:deskcolor="#d1d1d1">
    <inkscape:grid
       type="xygrid"
       id="grid841"
       originx="0"
       originy="0"
       spacingy="0.5"
       spacingx="0.5"
       units="px"
       visible="true"
       color="#404040"
       opacity="0.50196078"
       empcolor="#404040"
       empopacity="0.50196078" />
  </sodipodi:namedview>
  <defs
     id="defs3051">
    <style
       type="text/css"
       id="current-color-scheme">&#10;      .ColorScheme-Text {&#10;        color:#232629;&#10;      }&#10;      </style>
  </defs>
  <path
     id="path1"
     style="fill:#ffffff;fill-opacity:0.5;stroke:none;stroke-width:1"
     d="M 10 0.5 L 9.5712891 1.6289062 A 3.5 3.5 0 0 0 8.7539062 1.9707031 L 7.7070312 1.5 L 7 2.2070312 L 7.4707031 3.2558594 A 3.5 3.5 0 0 0 7.1259766 4.0722656 L 6 4.5 L 6 5.5 L 7.1289062 5.9287109 A 3.5 3.5 0 0 0 7.4707031 6.7460938 L 7 7.7929688 L 7.7070312 8.5 L 8.7558594 8.0292969 A 3.5 3.5 0 0 0 9.5722656 8.3740234 L 10 9.5 L 11 9.5 L 11.428711 8.3710938 A 3.5 3.5 0 0 0 12.246094 8.0292969 L 13.292969 8.5 L 14 7.7929688 L 13.529297 6.7441406 A 3.5 3.5 0 0 0 13.874023 5.9277344 L 15 5.5 L 15 4.5 L 13.871094 4.0712891 A 3.5 3.5 0 0 0 13.529297 3.2539062 L 14 2.2070312 L 13.292969 1.5 L 12.244141 1.9707031 A 3.5 3.5 0 0 0 11.427734 1.6259766 L 11 0.5 L 10 0.5 z M 3.9746094 2 C 3.4363659 2.0137587 3 2.4585963 3 3 L 3 13 C 3 13.549995 3.4500025 14 4 14 L 8 14 L 9 14 L 12 11 L 12 10 L 11 10 L 10.5 10 L 8 10 L 8 13 L 4 13 L 4 3 L 6 3 L 6 2 L 4 2 C 3.99141 2 3.983153 1.9997816 3.9746094 2 z M 10.5 2.5 A 2.5 2.5000005 0 0 1 13 5 A 2.5 2.5000005 0 0 1 10.5 7.5 A 2.5 2.5000005 0 0 1 8 5 A 2.5 2.5000005 0 0 1 10.5 2.5 z M 10 4 L 10 6 L 11.5 5 L 10 4 z " />
</svg>
