<?xml version="1.0" encoding="UTF-8" standalone="no"?>
<svg
   viewBox="0 0 16 16"
   version="1.1"
   id="svg5"
   sodipodi:docname="folder_tune.svg"
   inkscape:version="1.2.2 (b0a8486, 2022-12-01)"
   width="32"
   height="32"
   xmlns:inkscape="http://www.inkscape.org/namespaces/inkscape"
   xmlns:sodipodi="http://sodipodi.sourceforge.net/DTD/sodipodi-0.dtd"
   xmlns="http://www.w3.org/2000/svg"
   xmlns:svg="http://www.w3.org/2000/svg"
   xmlns:rdf="http://www.w3.org/1999/02/22-rdf-syntax-ns#"
   xmlns:cc="http://creativecommons.org/ns#"
   xmlns:dc="http://purl.org/dc/elements/1.1/">
  <metadata
     id="metadata9">
    <rdf:RDF>
      <cc:Work
         rdf:about="">
        <dc:format>image/svg+xml</dc:format>
        <dc:type
           rdf:resource="http://purl.org/dc/dcmitype/StillImage" />
      </cc:Work>
    </rdf:RDF>
  </metadata>
  <sodipodi:namedview
     pagecolor="#808080"
     bordercolor="#666666"
     borderopacity="1"
     objecttolerance="10"
     gridtolerance="10"
     guidetolerance="10"
     inkscape:pageopacity="0.50196078"
     inkscape:pageshadow="2"
     inkscape:window-width="1554"
     inkscape:window-height="1641"
     id="namedview7"
     showgrid="true"
     inkscape:zoom="32"
     inkscape:cx="12.375"
     inkscape:cy="20.421875"
     inkscape:window-x="3609"
     inkscape:window-y="257"
     inkscape:window-maximized="0"
     inkscape:current-layer="svg5"
     inkscape:snap-bbox="true"
     inkscape:snap-bbox-edge-midpoints="true"
     inkscape:showpageshadow="0"
     inkscape:pagecheckerboard="0"
     inkscape:deskcolor="#d1d1d1">
    <inkscape:grid
       type="xygrid"
       id="grid7040"
       units="px"
       spacingx="0.5"
       spacingy="0.5" />
  </sodipodi:namedview>
  <defs
     id="defs3051">
    <style
       type="text/css"
       id="current-color-scheme">
      .ColorScheme-Text {
        color:#232629;
      }
      </style>
  </defs>
  <path
     id="path13"
     style="fill:#ffffff;fill-opacity:0.5;stroke:none"
     d="M 3 2 C 2.4500016 2 2 2.4500016 2 3 L 2 13 C 2 13.549997 2.4500016 14 3 14 L 9 14 L 13 14 C 13.549997 14 14 13.549997 14 13 L 14 12.5 L 13 12.5 L 13 13 L 9 13 L 3 13 L 3 8 L 5 8 L 6.9980469 6 L 11.5 6 L 13 6 L 14 6 L 14 5 C 14 4.4500016 13.549997 4 13 4 L 9.0078125 4 L 7.0078125 2 L 7 2.0078125 L 7 2 L 3 2 z M 12.5 6.5 A 1.5 1.5 0 0 0 11.085938 7.5 L 7.5 7.5 L 7.5 8.5 L 11.086914 8.5 A 1.5 1.5 0 0 0 12.5 9.5 A 1.5 1.5 0 0 0 13.913086 8.5 L 15 8.5 L 15 7.5 L 13.913086 7.5 A 1.5 1.5 0 0 0 12.5 6.5 z M 10 9.5 A 1.5 1.5 0 0 0 8.5869141 10.5 L 7.5 10.5 L 7.5 11.5 L 8.5869141 11.5 A 1.5 1.5 0 0 0 10 12.5 A 1.5 1.5 0 0 0 11.413086 11.5 L 15 11.5 L 15 10.5 L 11.414062 10.5 A 1.5 1.5 0 0 0 10 9.5 z M 10 10.5 A 0.5 0.5 0 0 1 10.5 11 A 0.5 0.5 0 0 1 10 11.5 A 0.5 0.5 0 0 1 9.5 11 A 0.5 0.5 0 0 1 10 10.5 z " />
</svg>
