<?xml version="1.0" encoding="UTF-8" standalone="no"?>
<svg
   viewBox="0 0 16 16"
   version="1.1"
   id="svg6"
   sodipodi:docname="image_crop.svg"
   inkscape:version="1.3.2 (091e20e, 2023-11-25)"
   width="32"
   height="32"
   xmlns:inkscape="http://www.inkscape.org/namespaces/inkscape"
   xmlns:sodipodi="http://sodipodi.sourceforge.net/DTD/sodipodi-0.dtd"
   xmlns="http://www.w3.org/2000/svg"
   xmlns:svg="http://www.w3.org/2000/svg"
   xmlns:rdf="http://www.w3.org/1999/02/22-rdf-syntax-ns#"
   xmlns:cc="http://creativecommons.org/ns#"
   xmlns:dc="http://purl.org/dc/elements/1.1/">
  <metadata
     id="metadata10">
    <rdf:RDF>
      <cc:Work
         rdf:about="">
        <dc:format>image/svg+xml</dc:format>
        <dc:type
           rdf:resource="http://purl.org/dc/dcmitype/StillImage" />
      </cc:Work>
    </rdf:RDF>
  </metadata>
  <sodipodi:namedview
     pagecolor="#808080"
     bordercolor="#666666"
     borderopacity="1"
     objecttolerance="10"
     gridtolerance="10"
     guidetolerance="10"
     inkscape:pageopacity="0"
     inkscape:pageshadow="2"
     inkscape:window-width="1912"
     inkscape:window-height="2056"
     id="namedview8"
     showgrid="true"
     inkscape:zoom="41.7193"
     inkscape:cx="17.258199"
     inkscape:cy="20.230445"
     inkscape:window-x="3840"
     inkscape:window-y="0"
     inkscape:window-maximized="0"
     inkscape:current-layer="svg6"
     inkscape:snap-global="true"
     inkscape:snap-bbox="true"
     inkscape:bbox-nodes="true"
     inkscape:snap-page="true"
     inkscape:snap-bbox-edge-midpoints="true"
     inkscape:snap-bbox-midpoints="true"
     inkscape:showpageshadow="0"
     inkscape:pagecheckerboard="true"
     inkscape:deskcolor="#d1d1d1">
    <inkscape:grid
       id="grid1"
       units="px"
       originx="0"
       originy="0"
       spacingx="0.5"
       spacingy="0.5"
       empcolor="#3f3fff"
       empopacity="0.25098039"
       color="#3f3fff"
       opacity="0.12549"
       empspacing="5"
       dotted="false"
       gridanglex="30"
       gridanglez="30"
       visible="true" />
  </sodipodi:namedview>
  <defs
     id="defs3051">
    <style
       type="text/css"
       id="current-color-scheme">
      .ColorScheme-Text {
        color:#232629;
      }
      </style>
  </defs>
  <path
     id="path1"
     style="fill:#ffffff;fill-opacity:0.5;stroke:none;stroke-width:1"
     d="M 2 1 C 1.450003 1 1 1.450003 1 2 L 1 12 C 1 12.549994 1.450003 13 2 13 L 6.5 13 L 7.5 12 L 8 11.5 L 8.5 11.5 L 9.5 10.5 L 9.5 10 L 9.5 9.5 L 9.5 9 L 9 8.5 L 8.25 7.75 L 6.65625 9.34375 L 5.3125 8 L 5.28125 8 L 2 11.28125 L 2 2 L 10 2 L 10 1 L 2 1 z M 11 1 L 11 2 L 12 2 L 12 1 L 11 1 z M 13 1 L 13 2 L 14 2 L 14 7 L 14 8 L 13 9 L 13 10 L 14 11 L 15 12 L 15 11 L 15 10 L 15 9 L 15 2 C 15 1.450002 14.549996 1 14 1 L 13 1 z M 5 3 C 3.8954316 3 3 3.8954311 3 5 C 3 6.1045679 3.8954316 7 5 7 C 6.1045684 7 7 6.1045679 7 5 C 7 3.8954311 6.1045684 3 5 3 z M 11 3 L 11 4 L 12 4 L 12 3 L 11 3 z M 11 5 L 11 6 L 12 6 L 12 5 L 11 5 z M 9.3662109 5.5722656 C 8.8899004 5.8472641 8.7250025 6.4611889 9 6.9375 L 10.672852 9.8349609 L 9.3925781 12.052734 A 1.5 1.5 0 0 0 9 12 A 1.5 1.5 0 0 0 8.9746094 12 A 1.5 1.5 0 0 0 7.5 13.5 A 1.5 1.5 0 0 0 9 15 A 1.5 1.5 0 0 0 10.5 13.5 A 1.5 1.5 0 0 0 10.217773 12.624023 L 10.233398 12.59668 L 11.702148 11.617188 L 12.28418 12.626953 A 1.5 1.5 0 0 0 12 13.5 A 1.5 1.5 0 0 0 13.5 15 A 1.5 1.5 0 0 0 15 13.5 A 1.5 1.5 0 0 0 13.5 12 A 1.5 1.5 0 0 0 13.474609 12 A 1.5 1.5 0 0 0 13.109375 12.054688 L 11.827148 9.8339844 L 13.5 6.9375 C 13.774999 6.4611894 13.610102 5.8472639 13.133789 5.5722656 L 12.633789 6.4375 L 11.25 8.8339844 L 9.8662109 6.4375 L 9.3662109 5.5722656 z M 11.253906 10 A 0.5 0.5 0 0 1 11.753906 10.5 A 0.5 0.5 0 0 1 11.253906 11 A 0.5 0.5 0 0 1 10.753906 10.5 A 0.5 0.5 0 0 1 11.253906 10 z M 9 13 A 0.5 0.5 0 0 1 9.5 13.5 A 0.5 0.5 0 0 1 9 14 A 0.5 0.5 0 0 1 8.5 13.5 A 0.5 0.5 0 0 1 9 13 z M 13.5 13 A 0.5 0.5 0 0 1 14 13.5 A 0.5 0.5 0 0 1 13.5 14 A 0.5 0.5 0 0 1 13 13.5 A 0.5 0.5 0 0 1 13.5 13 z " />
</svg>
