<?xml version="1.0" encoding="UTF-8" standalone="no"?>
<svg
   viewBox="0 0 16 16"
   version="1.1"
   id="svg5"
   sodipodi:docname="text_function.svg"
   inkscape:version="1.3-beta (cedbd6c, 2023-05-28)"
   width="32"
   height="32"
   xmlns:inkscape="http://www.inkscape.org/namespaces/inkscape"
   xmlns:sodipodi="http://sodipodi.sourceforge.net/DTD/sodipodi-0.dtd"
   xmlns="http://www.w3.org/2000/svg"
   xmlns:svg="http://www.w3.org/2000/svg"
   xmlns:rdf="http://www.w3.org/1999/02/22-rdf-syntax-ns#"
   xmlns:cc="http://creativecommons.org/ns#"
   xmlns:dc="http://purl.org/dc/elements/1.1/">
  <metadata
     id="metadata9">
    <rdf:RDF>
      <cc:Work
         rdf:about="">
        <dc:format>image/svg+xml</dc:format>
        <dc:type
           rdf:resource="http://purl.org/dc/dcmitype/StillImage" />
      </cc:Work>
    </rdf:RDF>
  </metadata>
  <sodipodi:namedview
     pagecolor="#808080"
     bordercolor="#666666"
     borderopacity="1"
     objecttolerance="10"
     gridtolerance="10"
     guidetolerance="10"
     inkscape:pageopacity="0"
     inkscape:pageshadow="2"
     inkscape:window-width="1605"
     inkscape:window-height="1706"
     id="namedview7"
     showgrid="true"
     inkscape:zoom="32"
     inkscape:cx="9.59375"
     inkscape:cy="16.1875"
     inkscape:window-x="3664"
     inkscape:window-y="89"
     inkscape:window-maximized="0"
     inkscape:current-layer="svg5"
     inkscape:snap-bbox="true"
     inkscape:bbox-nodes="true"
     inkscape:snap-page="false"
     inkscape:pagecheckerboard="0"
     inkscape:snap-global="true"
     inkscape:object-nodes="false"
     inkscape:snap-nodes="false"
     inkscape:showpageshadow="0"
     inkscape:deskcolor="#d1d1d1">
    <inkscape:grid
       type="xygrid"
       id="grid825"
       originx="0"
       originy="0"
       spacingy="0.5"
       spacingx="0.5"
       units="px"
       visible="true"
       color="#404040"
       opacity="0.50196078"
       empcolor="#404040"
       empopacity="0.50196078" />
  </sodipodi:namedview>
  <defs
     id="defs3051">
    <rect
       x="-100"
       y="-85"
       width="160"
       height="160"
       id="rect7561" />
    <rect
       x="-20"
       y="3"
       width="103"
       height="43"
       id="rect5113" />
    <style
       type="text/css"
       id="current-color-scheme">&#10;      .ColorScheme-Text {&#10;        color:#232629;&#10;      }&#10;      </style>
  </defs>
  <path
     id="path30307"
     style="color:#000000;font-size:40px;font-family:Rye;-inkscape-font-specification:'OpenSymbol, Normal';letter-spacing:0px;word-spacing:0px;white-space:pre;fill:#ffffff;fill-opacity:0.5;stroke-width:0.500001;-inkscape-stroke:none"
     d="M 6.8115234 1.9580078 C 6.3256661 1.9580078 6.0368306 2.1289758 5.7216797 2.3916016 C 5.3146098 2.7461463 5.0915006 3.2320725 4.8945312 4.125 C 4.8420061 4.3219693 4.6191406 5.5167062 4.6191406 5.5429688 C 4.6191406 5.5560997 4.3690886 5.5556641 3.9882812 5.5556641 C 3.292323 5.5556641 3.3059954 5.5559777 3.2666016 5.6347656 C 3.2534706 5.6478966 3.2264583 5.7528076 3.2001953 5.8447266 C 3.1476704 6.0548272 3.1609056 6.0943952 3.2265625 6.1337891 C 3.2659565 6.160052 3.3060126 6.1601562 3.8837891 6.1601562 L 4.5009766 6.1601562 L 4.5009766 6.1992188 C 4.4484516 6.2517437 3.4631524 12.042846 3.1611328 12.870117 C 3.0429512 13.159006 2.8721054 13.421875 2.6357422 13.421875 C 2.5044293 13.421875 2.3730644 13.369033 2.2548828 13.342773 L 2.3730469 13.277344 C 2.6225413 13.159162 2.8330078 12.909773 2.8330078 12.568359 C 2.8330078 12.200684 2.5962963 12.016602 2.2548828 12.016602 C 1.7690252 12.016602 1.4277344 12.423967 1.4277344 12.949219 C 1.4277344 13.540127 1.9140795 13.907227 2.53125 13.907227 C 2.8595322 13.907227 3.1741069 13.763062 3.4892578 13.487305 C 4.0145093 12.988316 4.3694194 12.199969 4.6845703 10.794922 C 4.7896206 10.348462 4.9335412 9.6132302 5.2880859 7.7617188 L 5.5908203 6.1601562 L 6.3261719 6.1601562 C 7.1403119 6.1601562 7.1139264 6.1598426 7.1533203 6.0810547 C 7.1664503 6.0416607 7.2451172 5.7399205 7.2451172 5.6611328 C 7.2451172 5.5560825 7.1927197 5.5556641 6.4179688 5.5556641 C 5.7351418 5.5556641 5.6953125 5.5555598 5.6953125 5.5292969 C 5.7347065 5.4899029 5.9847759 3.822179 6.2080078 2.9423828 C 6.2736647 2.6797571 6.4444055 2.4443359 6.7070312 2.4443359 C 6.8252131 2.4443359 6.9824041 2.483067 7.1005859 2.5224609 L 6.9824219 2.5878906 C 6.7329281 2.7060722 6.5224609 2.9564381 6.5224609 3.2978516 C 6.5224609 3.6655276 6.7591723 3.8486328 7.1005859 3.8486328 C 7.5733115 3.8486327 7.9277344 3.4413717 7.9277344 2.9423828 C 7.9277344 2.3383436 7.4024318 1.9974017 6.8115234 1.9580078 z M 11.501953 2 C 9.434082 3.1697755 8.04496 5.1711104 7.3349609 8.0048828 C 6.638275 10.806655 7.0281743 12.805336 8.5058594 14 L 8.5732422 13.738281 C 7.5259923 12.742727 7.3549866 10.831544 8.0605469 8.0048828 C 8.7616718 5.2066659 9.8868637 3.296459 11.435547 2.2724609 L 11.501953 2 z M 13 2 L 12.933594 2.2617188 C 13.98084 3.2572728 14.151849 5.1684557 13.446289 7.9951172 C 12.745165 10.793334 11.619973 12.703541 10.071289 13.727539 L 10.004883 14 C 12.072754 12.830224 13.461876 10.828889 14.171875 7.9951172 C 14.86856 5.1933447 14.477686 3.1946636 13 2 z " />
</svg>
