<?xml version="1.0" encoding="UTF-8" standalone="no"?>
<svg
   viewBox="0 0 16 16"
   version="1.1"
   id="svg9"
   sodipodi:docname="visibility_off.svg"
   inkscape:version="1.3-beta (cedbd6c, 2023-05-28)"
   width="32"
   height="32"
   xmlns:inkscape="http://www.inkscape.org/namespaces/inkscape"
   xmlns:sodipodi="http://sodipodi.sourceforge.net/DTD/sodipodi-0.dtd"
   xmlns="http://www.w3.org/2000/svg"
   xmlns:svg="http://www.w3.org/2000/svg"
   xmlns:rdf="http://www.w3.org/1999/02/22-rdf-syntax-ns#"
   xmlns:cc="http://creativecommons.org/ns#"
   xmlns:dc="http://purl.org/dc/elements/1.1/">
  <metadata
     id="metadata13">
    <rdf:RDF>
      <cc:Work
         rdf:about="">
        <dc:format>image/svg+xml</dc:format>
        <dc:type
           rdf:resource="http://purl.org/dc/dcmitype/StillImage" />
      </cc:Work>
    </rdf:RDF>
  </metadata>
  <sodipodi:namedview
     pagecolor="#808080"
     bordercolor="#666666"
     borderopacity="1"
     objecttolerance="10"
     gridtolerance="10"
     guidetolerance="10"
     inkscape:pageopacity="0"
     inkscape:pageshadow="2"
     inkscape:window-width="1292"
     inkscape:window-height="885"
     id="namedview11"
     showgrid="true"
     inkscape:snap-page="true"
     inkscape:snap-bbox="true"
     inkscape:snap-bbox-midpoints="false"
     inkscape:bbox-nodes="true"
     inkscape:snap-bbox-edge-midpoints="false"
     inkscape:zoom="32.000002"
     inkscape:cx="12.718749"
     inkscape:cy="13.218749"
     inkscape:window-x="106"
     inkscape:window-y="77"
     inkscape:window-maximized="0"
     inkscape:current-layer="svg9"
     inkscape:document-rotation="0"
     inkscape:showpageshadow="0"
     inkscape:pagecheckerboard="0"
     inkscape:deskcolor="#d1d1d1">
    <inkscape:grid
       id="grid1"
       units="px"
       originx="0"
       originy="0"
       spacingx="0.5"
       spacingy="0.5"
       empcolor="#404040"
       empopacity="0.50196078"
       color="#404040"
       opacity="0.50196078"
       empspacing="5"
       dotted="false"
       gridanglex="30"
       gridanglez="30"
       visible="true" />
  </sodipodi:namedview>
  <defs
     id="defs3051">
    <style
       type="text/css"
       id="current-color-scheme">&#10;      .ColorScheme-Text {&#10;        color:#232629;&#10;      }&#10;      </style>
  </defs>
  <path
     id="path95"
     style="fill:#ffffff;fill-opacity:0.5;stroke-width:0.188976;stroke-linecap:round"
     d="m 14,2 0.707031,0.7070313 -2.493164,2.4931642 A 8,8 0 0 1 14.927735,8 8,8 0 0 1 8.1054691,11.999024 8,8 0 0 1 8.0000001,12 8,8 0 0 1 5.7402346,11.673828 l -0.932618,0.932618 -0.70703,0.707031 -0.707032,0.707031 -0.707031,0.707031 -0.707032,-0.707031 0.707032,-0.707031 0.707031,-0.707031 0.707032,-0.707032 0.608398,-0.608398 1.169921,-1.169922 0.707032,-0.7070315 2.828125,-2.828125 L 10.121094,5.878906 11.291016,4.7089844 Z M 8.0000001,4 A 8,8 0 0 1 10.259766,4.3261719 L 9.2929691,5.292969 A 3,3 0 0 0 8.0781251,5.0009765 7,7 0 0 0 8.0000001,5 3,3 0 0 0 4.9999996,8 3,3 0 0 0 5.2929696,9.292969 L 4.5546876,10.03125 A 4,4 0 0 1 4.0000006,8 4,4 0 0 1 4.6093756,5.876953 7,7 0 0 0 2.2558596,8 a 7,7 0 0 0 2.260742,2.069336 l -0.730468,0.730469 A 8,8 0 0 1 1.0722656,8 8,8 0 0 1 7.9003906,4.0009765 4,4 0 0 1 8.0000001,4 Z M 11.484375,5.9296875 11.445313,5.96875 A 4,4 0 0 1 12,8 4,4 0 0 1 11.389649,10.124024 7,7 0 0 0 13.744141,8 7,7 0 0 0 11.484375,5.9296875 Z M 8.0302736,6 A 2,2 0 0 1 8.5175781,6.068359 L 7.9365236,6.649414 A 1,1 0 0 0 7.4111331,6.088867 2,2 0 0 1 8.0000001,6 2,2 0 0 1 8.0302736,6 Z M 10.707031,6.707031 9.9316406,7.482422 A 2,2 0 0 1 10,8 2,2 0 0 1 8.0000001,10 2,2 0 0 1 7.4824221,9.931641 l -0.775391,0.775391 A 3,3 0 0 0 7.9218751,10.999024 3,3 0 0 0 8.0000001,11 3,3 0 0 0 11,8 3,3 0 0 0 10.707031,6.707031 Z M 6.0888671,7.4121095 a 1,1 0 0 0 0.560547,0.524414 L 6.0683596,8.517578 A 2,2 0 0 1 6.0000006,8 2,2 0 0 1 6.0888671,7.4121095 Z" />
</svg>
