<?xml version="1.0" encoding="UTF-8" standalone="no"?>
<svg
   viewBox="0 0 16 16"
   version="1.1"
   id="svg6"
   sodipodi:docname="author_check.svg"
   inkscape:version="1.2.2 (b0a8486, 2022-12-01)"
   width="32"
   height="32"
   xmlns:inkscape="http://www.inkscape.org/namespaces/inkscape"
   xmlns:sodipodi="http://sodipodi.sourceforge.net/DTD/sodipodi-0.dtd"
   xmlns="http://www.w3.org/2000/svg"
   xmlns:svg="http://www.w3.org/2000/svg"
   xmlns:rdf="http://www.w3.org/1999/02/22-rdf-syntax-ns#"
   xmlns:cc="http://creativecommons.org/ns#"
   xmlns:dc="http://purl.org/dc/elements/1.1/">
  <metadata
     id="metadata10">
    <rdf:RDF>
      <cc:Work
         rdf:about="">
        <dc:format>image/svg+xml</dc:format>
        <dc:type
           rdf:resource="http://purl.org/dc/dcmitype/StillImage" />
      </cc:Work>
    </rdf:RDF>
  </metadata>
  <sodipodi:namedview
     pagecolor="#ffffff"
     bordercolor="#666666"
     borderopacity="1"
     objecttolerance="10"
     gridtolerance="10"
     guidetolerance="10"
     inkscape:pageopacity="0"
     inkscape:pageshadow="2"
     inkscape:window-width="1912"
     inkscape:window-height="2056"
     id="namedview8"
     showgrid="true"
     inkscape:zoom="16"
     inkscape:cx="-17.125"
     inkscape:cy="44.65625"
     inkscape:window-x="3840"
     inkscape:window-y="0"
     inkscape:window-maximized="0"
     inkscape:current-layer="svg6"
     scale-x="0.5"
     inkscape:snap-page="true"
     inkscape:showpageshadow="0"
     inkscape:pagecheckerboard="0"
     inkscape:deskcolor="#d1d1d1">
    <inkscape:grid
       type="xygrid"
       id="grid21170"
       units="px"
       spacingx="0.5"
       spacingy="0.5" />
  </sodipodi:namedview>
  <defs
     id="defs3051">
    <style
       type="text/css"
       id="current-color-scheme">
      .ColorScheme-Text {
        color:#232629;
      }
      </style>
  </defs>
  <path
     id="path4"
     style="fill:#000000;fill-opacity:1;stroke:none"
     d="M 8 2 A 3 3 0 0 0 5 5 A 3 3 0 0 0 8 8 A 3 3 0 0 0 11 5 A 3 3 0 0 0 8 2 z M 8 9 A 5 4.5 0 0 0 3 13.5 A 5 4.5 0 0 0 3.0332031 14 L 9.0859375 14 L 8.7929688 13.707031 L 8.0859375 13 L 10.207031 10.878906 L 10.914062 11.585938 L 11.572266 12.244141 L 12.279297 11.537109 L 12.419922 11.396484 A 5 4.5 0 0 0 8 9 z M 14.292969 10.792969 L 11.5 13.585938 L 10.207031 12.292969 L 9.5 13 L 10.5 14 L 10.792969 14.292969 L 10.914062 14.414062 L 11.5 15 L 12.914062 13.585938 L 13 13.5 L 15 11.5 L 14.292969 10.792969 z " />
</svg>
