<?xml version="1.0" encoding="UTF-8" standalone="no"?>
<svg
   viewBox="0 0 16 16"
   version="1.1"
   id="svg5"
   sodipodi:docname="brush_tune.svg"
   inkscape:version="1.2.2 (b0a8486, 2022-12-01)"
   width="32"
   height="32"
   xmlns:inkscape="http://www.inkscape.org/namespaces/inkscape"
   xmlns:sodipodi="http://sodipodi.sourceforge.net/DTD/sodipodi-0.dtd"
   xmlns="http://www.w3.org/2000/svg"
   xmlns:svg="http://www.w3.org/2000/svg"
   xmlns:rdf="http://www.w3.org/1999/02/22-rdf-syntax-ns#"
   xmlns:cc="http://creativecommons.org/ns#"
   xmlns:dc="http://purl.org/dc/elements/1.1/">
  <metadata
     id="metadata9">
    <rdf:RDF>
      <cc:Work
         rdf:about="">
        <dc:format>image/svg+xml</dc:format>
        <dc:type
           rdf:resource="http://purl.org/dc/dcmitype/StillImage" />
      </cc:Work>
    </rdf:RDF>
  </metadata>
  <sodipodi:namedview
     pagecolor="#808080"
     bordercolor="#666666"
     borderopacity="1"
     objecttolerance="10"
     gridtolerance="10"
     guidetolerance="10"
     inkscape:pageopacity="0"
     inkscape:pageshadow="2"
     inkscape:window-width="1990"
     inkscape:window-height="1752"
     id="namedview7"
     showgrid="true"
     inkscape:zoom="32"
     inkscape:cx="0.875"
     inkscape:cy="27.515625"
     inkscape:window-x="3762"
     inkscape:window-y="137"
     inkscape:window-maximized="0"
     inkscape:current-layer="svg5"
     inkscape:snap-bbox="true"
     inkscape:bbox-nodes="true"
     inkscape:snap-page="true"
     inkscape:document-rotation="0"
     inkscape:showpageshadow="0"
     inkscape:pagecheckerboard="0"
     inkscape:deskcolor="#d1d1d1">
    <inkscape:grid
       type="xygrid"
       id="grid20707"
       units="px"
       spacingx="0.5"
       spacingy="0.5" />
  </sodipodi:namedview>
  <defs
     id="defs3051">
    <style
       type="text/css"
       id="current-color-scheme">
      .ColorScheme-Text {
        color:#232629;
      }
      </style>
  </defs>
  <path
     id="path4"
     style="color:#232629;fill:#000000;fill-opacity:1;stroke:none;stroke-width:1"
     class="ColorScheme-Text"
     d="M 13.427734 2.0058594 A 1.500133 6.7506006 44.989453 0 0 8.0507812 5.8300781 A 1.500133 6.7506006 44.989453 0 0 5.3945312 8.9160156 C 6.2015104 9.1731154 6.8308909 9.8020764 7.0878906 10.609375 A 1.500133 6.7506006 44.989453 0 0 10.171875 7.9511719 A 1.500133 6.7506006 44.989453 0 0 13.882812 2.1171875 A 1.500133 6.7506006 44.989453 0 0 13.634766 2.0058594 A 1.500133 6.7506006 44.989453 0 0 13.427734 2.0058594 z M 12.5 9 A 1.5 1.5 0 0 0 11.085938 10 L 9 10 L 8 11 L 11.086914 11 A 1.5 1.5 0 0 0 12.5 12 A 1.5 1.5 0 0 0 13.913086 11 L 15 11 L 15 10 L 13.913086 10 A 1.5 1.5 0 0 0 12.5 9 z M 5 9.9960938 L 5 10 C 2.000083 10.804205 4.2499378 12.702701 2 14 C 4.999917 14 6.5 12.499247 6.5 11.498047 C 6.5 10.998947 6.5509584 10.079093 5 9.9960938 z M 10 12 A 1.5 1.5 0 0 0 8.5869141 13 L 7.5 13 L 7.5 14 L 8.5869141 14 A 1.5 1.5 0 0 0 10 15 A 1.5 1.5 0 0 0 11.413086 14 L 15 14 L 15 13 L 11.414062 13 A 1.5 1.5 0 0 0 10 12 z M 10 13 A 0.5 0.5 0 0 1 10.5 13.5 A 0.5 0.5 0 0 1 10 14 A 0.5 0.5 0 0 1 9.5 13.5 A 0.5 0.5 0 0 1 10 13 z M 13 15 L 13 15.003906 L 14 15.003906 L 14 15 L 13 15 z " />
</svg>
