<?xml version="1.0" encoding="UTF-8" standalone="no"?>
<svg
   viewBox="0 0 16 16"
   version="1.1"
   id="svg5"
   sodipodi:docname="format_text_indent_inc.svg"
   inkscape:version="1.3-beta (cedbd6c, 2023-05-28)"
   width="32"
   height="32"
   xmlns:inkscape="http://www.inkscape.org/namespaces/inkscape"
   xmlns:sodipodi="http://sodipodi.sourceforge.net/DTD/sodipodi-0.dtd"
   xmlns="http://www.w3.org/2000/svg"
   xmlns:svg="http://www.w3.org/2000/svg"
   xmlns:rdf="http://www.w3.org/1999/02/22-rdf-syntax-ns#"
   xmlns:cc="http://creativecommons.org/ns#"
   xmlns:dc="http://purl.org/dc/elements/1.1/">
  <metadata
     id="metadata9">
    <rdf:RDF>
      <cc:Work
         rdf:about="">
        <dc:format>image/svg+xml</dc:format>
        <dc:type
           rdf:resource="http://purl.org/dc/dcmitype/StillImage" />
      </cc:Work>
    </rdf:RDF>
  </metadata>
  <sodipodi:namedview
     pagecolor="#808080"
     bordercolor="#666666"
     borderopacity="1"
     objecttolerance="10"
     gridtolerance="10"
     guidetolerance="10"
     inkscape:pageopacity="0"
     inkscape:pageshadow="2"
     inkscape:window-width="1912"
     inkscape:window-height="1694"
     id="namedview7"
     showgrid="true"
     inkscape:zoom="32"
     inkscape:cx="12.90625"
     inkscape:cy="10.71875"
     inkscape:window-x="1920"
     inkscape:window-y="0"
     inkscape:window-maximized="0"
     inkscape:current-layer="svg5"
     inkscape:snap-bbox="true"
     inkscape:bbox-nodes="true"
     inkscape:snap-page="true"
     inkscape:document-rotation="0"
     inkscape:snap-bbox-edge-midpoints="true"
     inkscape:showpageshadow="0"
     inkscape:pagecheckerboard="0"
     inkscape:deskcolor="#d1d1d1">
    <inkscape:grid
       id="grid1"
       units="px"
       originx="0"
       originy="0"
       spacingx="0.5"
       spacingy="0.5"
       empcolor="#404040"
       empopacity="0.50196078"
       color="#404040"
       opacity="0.50196078"
       empspacing="5"
       dotted="false"
       gridanglex="30"
       gridanglez="30"
       visible="true" />
  </sodipodi:namedview>
  <defs
     id="defs3051">
    <style
       type="text/css"
       id="current-color-scheme">&#10;      .ColorScheme-Text {&#10;        color:#232629;&#10;      }&#10;      </style>
  </defs>
  <path
     id="path5"
     style="fill:#000000;fill-opacity:1;stroke:none;stroke-width:1"
     d="M 2 3 L 2 4 L 4 4 L 5 4 L 14 4 L 14 3 L 5 3 L 4 3 L 2 3 z M 2 5 L 2 6 L 9 6 L 10 6 L 13 6 L 14 6 L 14 5 L 13 5 L 10 5 L 9 5 L 2 5 z M 2 7 L 2 8.25 L 2 10.75 L 2 12 L 3.25 10.75 L 4.5 9.5 L 3.25 8.25 L 2 7 z M 6 7 L 6 8 L 9 8 L 10 8 L 13 8 L 14 8 L 14 7 L 13 7 L 10 7 L 9 7 L 6 7 z M 6 9 L 6 10 L 9 10 L 10 10 L 13 10 L 14 10 L 14 9 L 13 9 L 10 9 L 9 9 L 6 9 z M 6 11 L 6 12 L 9 12 L 10 12 L 13 12 L 14 12 L 14 11 L 13 11 L 10 11 L 9 11 L 6 11 z " />
</svg>
