<?xml version="1.0" encoding="UTF-8" standalone="no"?>
<svg
   viewBox="0 0 16 16"
   version="1.1"
   id="svg6"
   sodipodi:docname="symbol_ok.svg"
   inkscape:version="1.3-beta (cedbd6c, 2023-05-28)"
   width="32"
   height="32"
   xmlns:inkscape="http://www.inkscape.org/namespaces/inkscape"
   xmlns:sodipodi="http://sodipodi.sourceforge.net/DTD/sodipodi-0.dtd"
   xmlns="http://www.w3.org/2000/svg"
   xmlns:svg="http://www.w3.org/2000/svg"
   xmlns:rdf="http://www.w3.org/1999/02/22-rdf-syntax-ns#"
   xmlns:cc="http://creativecommons.org/ns#"
   xmlns:dc="http://purl.org/dc/elements/1.1/">
  <metadata
     id="metadata10">
    <rdf:RDF>
      <cc:Work
         rdf:about="">
        <dc:format>image/svg+xml</dc:format>
        <dc:type
           rdf:resource="http://purl.org/dc/dcmitype/StillImage" />
      </cc:Work>
    </rdf:RDF>
  </metadata>
  <sodipodi:namedview
     pagecolor="#808080"
     bordercolor="#666666"
     borderopacity="1"
     objecttolerance="10"
     gridtolerance="10"
     guidetolerance="10"
     inkscape:pageopacity="0"
     inkscape:pageshadow="2"
     inkscape:window-width="1912"
     inkscape:window-height="1358"
     id="namedview8"
     showgrid="true"
     inkscape:zoom="22.627417"
     inkscape:cx="13.700194"
     inkscape:cy="23.157747"
     inkscape:window-x="3840"
     inkscape:window-y="698"
     inkscape:window-maximized="0"
     inkscape:current-layer="svg6"
     inkscape:pagecheckerboard="0"
     inkscape:snap-bbox="true"
     inkscape:showpageshadow="0"
     inkscape:deskcolor="#d1d1d1">
    <inkscape:grid
       type="xygrid"
       id="grid863"
       originx="0"
       originy="0"
       spacingy="0.5"
       spacingx="0.5"
       units="px"
       visible="true"
       color="#404040"
       opacity="0.50196078"
       empcolor="#404040"
       empopacity="0.50196078" />
  </sodipodi:namedview>
  <defs
     id="defs3051">
    <style
       type="text/css"
       id="current-color-scheme">&#10;      .ColorScheme-Text {&#10;        color:#232629;&#10;      }&#10;      </style>
  </defs>
  <path
     id="path4"
     style="color:#232629;fill:#000000;fill-opacity:1;stroke:none;stroke-width:2"
     d="M 15 5 C 8.9240366 5 4 9.9240366 4 16 C 4 22.075964 8.9240366 27 15 27 C 21.075964 27 26 22.075964 26 16 C 26 15.623373 25.982328 15.251644 25.945312 14.884766 L 23.957031 16.871094 C 23.519753 21.432387 19.685468 25 15 25 C 10.03003 25 6 20.97997 6 16 C 6 11.03003 10.02003 7 15 7 C 17.828166 7 20.351945 8.302161 22.001953 10.341797 L 23.421875 8.921875 C 21.404197 6.5233975 18.380227 5 15 5 z M 24.900391 10.271484 L 24.580078 10.591797 L 23.101562 12.070312 L 15 20.171875 L 10.757812 15.929688 L 9.34375 17.34375 L 13.585938 21.585938 L 15 23 L 16.414062 21.585938 L 23.816406 14.183594 L 25.447266 12.552734 L 26.314453 11.685547 L 24.900391 10.271484 z "
     transform="scale(0.5)" />
</svg>
