<?xml version="1.0" encoding="UTF-8" standalone="no"?>
<svg
   viewBox="0 0 16 16"
   version="1.1"
   id="svg6"
   sodipodi:docname="symbol_error.svg"
   inkscape:version="1.3-beta (cedbd6c, 2023-05-28)"
   width="32"
   height="32"
   xmlns:inkscape="http://www.inkscape.org/namespaces/inkscape"
   xmlns:sodipodi="http://sodipodi.sourceforge.net/DTD/sodipodi-0.dtd"
   xmlns="http://www.w3.org/2000/svg"
   xmlns:svg="http://www.w3.org/2000/svg"
   xmlns:rdf="http://www.w3.org/1999/02/22-rdf-syntax-ns#"
   xmlns:cc="http://creativecommons.org/ns#"
   xmlns:dc="http://purl.org/dc/elements/1.1/">
  <metadata
     id="metadata10">
    <rdf:RDF>
      <cc:Work
         rdf:about="">
        <dc:format>image/svg+xml</dc:format>
        <dc:type
           rdf:resource="http://purl.org/dc/dcmitype/StillImage" />
      </cc:Work>
    </rdf:RDF>
  </metadata>
  <sodipodi:namedview
     pagecolor="#808080"
     bordercolor="#666666"
     borderopacity="1"
     objecttolerance="10"
     gridtolerance="10"
     guidetolerance="10"
     inkscape:pageopacity="0"
     inkscape:pageshadow="2"
     inkscape:window-width="1912"
     inkscape:window-height="1358"
     id="namedview8"
     showgrid="true"
     inkscape:zoom="32"
     inkscape:cx="9.625"
     inkscape:cy="20.03125"
     inkscape:window-x="3840"
     inkscape:window-y="698"
     inkscape:window-maximized="0"
     inkscape:current-layer="svg6"
     inkscape:pagecheckerboard="0"
     inkscape:snap-bbox="true"
     inkscape:showpageshadow="0"
     inkscape:deskcolor="#d1d1d1">
    <inkscape:grid
       type="xygrid"
       id="grid863"
       originx="0"
       originy="0"
       spacingy="0.5"
       spacingx="0.5"
       units="px"
       visible="true"
       color="#404040"
       opacity="0.50196078"
       empcolor="#404040"
       empopacity="0.50196078" />
  </sodipodi:namedview>
  <defs
     id="defs3051">
    <style
       type="text/css"
       id="current-color-scheme">&#10;      .ColorScheme-Text {&#10;        color:#232629;&#10;      }&#10;      </style>
  </defs>
  <path
     id="path4"
     style="color:#232629;fill:#000000;fill-opacity:1;stroke:none;stroke-width:2"
     d="M 15 5 C 8.9240122 5 4 9.9240122 4 16 C 4 22.075988 8.9240122 27 15 27 C 21.075988 27 26 22.075988 26 16 C 26 9.9240122 21.075988 5 15 5 z M 15 7 C 19.96999 7 24 11.02001 24 16 C 24 20.96999 19.97999 25 15 25 C 10.03001 25 6 20.97999 6 16 C 6 11.03001 10.02001 7 15 7 z M 14 9 L 14 19 L 16 19 L 16 9 L 14 9 z M 14 21 L 14 23 L 16 23 L 16 21 L 14 21 z "
     transform="scale(0.5)" />
</svg>
