<?xml version="1.0" encoding="UTF-8" standalone="no"?>
<svg
   viewBox="0 0 16 16"
   version="1.1"
   id="svg6"
   sodipodi:docname="tune_apply.svg"
   inkscape:version="1.2.2 (b0a8486, 2022-12-01)"
   width="32"
   height="32"
   xmlns:inkscape="http://www.inkscape.org/namespaces/inkscape"
   xmlns:sodipodi="http://sodipodi.sourceforge.net/DTD/sodipodi-0.dtd"
   xmlns="http://www.w3.org/2000/svg"
   xmlns:svg="http://www.w3.org/2000/svg"
   xmlns:rdf="http://www.w3.org/1999/02/22-rdf-syntax-ns#"
   xmlns:cc="http://creativecommons.org/ns#"
   xmlns:dc="http://purl.org/dc/elements/1.1/">
  <metadata
     id="metadata10">
    <rdf:RDF>
      <cc:Work
         rdf:about="">
        <dc:format>image/svg+xml</dc:format>
        <dc:type
           rdf:resource="http://purl.org/dc/dcmitype/StillImage" />
      </cc:Work>
    </rdf:RDF>
  </metadata>
  <sodipodi:namedview
     pagecolor="#808080"
     bordercolor="#666666"
     borderopacity="1"
     objecttolerance="10"
     gridtolerance="10"
     guidetolerance="10"
     inkscape:pageopacity="0"
     inkscape:pageshadow="2"
     inkscape:window-width="1912"
     inkscape:window-height="2056"
     id="namedview8"
     showgrid="true"
     inkscape:zoom="16"
     inkscape:cx="17"
     inkscape:cy="8.03125"
     inkscape:window-x="3840"
     inkscape:window-y="0"
     inkscape:window-maximized="0"
     inkscape:current-layer="svg6"
     inkscape:showpageshadow="0"
     inkscape:pagecheckerboard="0"
     inkscape:deskcolor="#d1d1d1">
    <inkscape:grid
       type="xygrid"
       id="grid1837"
       units="px"
       spacingx="0.5"
       spacingy="0.5" />
  </sodipodi:namedview>
  <defs
     id="defs3051">
    <style
       type="text/css"
       id="current-color-scheme">
      .ColorScheme-Text {
        color:#232629;
      }
      </style>
  </defs>
  <path
     id="path13306"
     style="color:#232629;fill:#000000;fill-opacity:1;stroke:none"
     d="M 10 2.5 C 9.0680204 2.5 8.2844625 3.1373019 8.0625 4 L 2 4 L 2 5 L 8.0625 5 C 8.2844625 5.8626981 9.0680204 6.5 10 6.5 C 10.93198 6.5 11.715537 5.8626981 11.9375 5 L 14 5 L 14 4 L 11.9375 4 C 11.715537 3.1373019 10.93198 2.5 10 2.5 z M 4.9560547 7.5 C 4.0433038 7.5195055 3.2809938 8.1507836 3.0625 9 L 2 9 L 2 10 L 3.0625 10 C 3.284462 10.862696 4.0680218 11.5 5 11.5 C 5.9319782 11.5 6.715538 10.862696 6.9375 10 L 7 10 L 9 10 L 12.414062 10 L 12.792969 9.6210938 L 13.414062 9 L 9 9 L 7 9 L 6.9375 9 C 6.715538 8.1373038 5.9319782 7.5 5 7.5 C 4.985438 7.5 4.970543 7.4996904 4.9560547 7.5 z M 5 8.5 C 5.5522782 8.5 6 8.9477222 6 9.5 C 6 10.052277 5.5522782 10.5 5 10.5 C 4.4477218 10.5 4 10.052277 4 9.5 C 4 8.9477222 4.4477218 8.5 5 8.5 z M 14.914062 8.9140625 L 14.863281 8.9638672 L 14 9.828125 L 13.828125 10 L 11.121094 12.707031 L 9.2070312 10.792969 L 8.7070312 11.292969 L 8.5 11.5 L 8 12 L 9.9140625 13.914062 L 10.121094 14.121094 L 10.292969 14.292969 L 10.5 14.5 L 11 15 L 11.049805 14.950195 L 16 10 L 15.707031 9.7080078 L 15.707031 9.7070312 L 15.621094 9.6210938 L 14.914062 8.9140625 z " />
</svg>
