<?xml version="1.0" encoding="UTF-8" standalone="no"?>
<svg
   viewBox="0 0 16 16"
   version="1.1"
   id="svg6"
   sodipodi:docname="author_lock.svg"
   inkscape:version="1.2.2 (b0a8486, 2022-12-01)"
   width="32"
   height="32"
   xmlns:inkscape="http://www.inkscape.org/namespaces/inkscape"
   xmlns:sodipodi="http://sodipodi.sourceforge.net/DTD/sodipodi-0.dtd"
   xmlns="http://www.w3.org/2000/svg"
   xmlns:svg="http://www.w3.org/2000/svg"
   xmlns:rdf="http://www.w3.org/1999/02/22-rdf-syntax-ns#"
   xmlns:cc="http://creativecommons.org/ns#"
   xmlns:dc="http://purl.org/dc/elements/1.1/">
  <metadata
     id="metadata10">
    <rdf:RDF>
      <cc:Work
         rdf:about="">
        <dc:format>image/svg+xml</dc:format>
        <dc:type
           rdf:resource="http://purl.org/dc/dcmitype/StillImage" />
      </cc:Work>
    </rdf:RDF>
  </metadata>
  <sodipodi:namedview
     pagecolor="#ffffff"
     bordercolor="#666666"
     borderopacity="1"
     objecttolerance="10"
     gridtolerance="10"
     guidetolerance="10"
     inkscape:pageopacity="0"
     inkscape:pageshadow="2"
     inkscape:window-width="1912"
     inkscape:window-height="2056"
     id="namedview8"
     showgrid="true"
     inkscape:zoom="16"
     inkscape:cx="16.3125"
     inkscape:cy="32.84375"
     inkscape:window-x="3840"
     inkscape:window-y="0"
     inkscape:window-maximized="0"
     inkscape:current-layer="svg6"
     scale-x="0.5"
     inkscape:snap-page="true"
     inkscape:showpageshadow="0"
     inkscape:pagecheckerboard="0"
     inkscape:deskcolor="#d1d1d1">
    <inkscape:grid
       type="xygrid"
       id="grid8964"
       units="px"
       spacingx="0.5"
       spacingy="0.5" />
  </sodipodi:namedview>
  <defs
     id="defs3051">
    <style
       type="text/css"
       id="current-color-scheme">
      .ColorScheme-Text {
        color:#232629;
      }
      </style>
  </defs>
  <path
     id="path4"
     style="fill:#000000;fill-opacity:0.5;stroke:none"
     d="M 7 2 A 3 3 0 0 0 4 5 A 3 3 0 0 0 7 8 A 3 3 0 0 0 10 5 A 3 3 0 0 0 7 2 z M 11.75 8.5 A 1.5 1.5 0 0 0 10.25 10 L 10.25 11 L 10.25 11.032227 C 9.8202462 11.144286 9.5 11.536508 9.5 12 L 9.5 13 L 9.5 14 C 9.5 14.549993 9.9500055 15 10.5 15 L 13 15 C 13.549993 15 14 14.549993 14 14 L 14 13 L 14 12 C 14 11.536266 13.680029 11.143008 13.25 11.03125 L 13.25 10 A 1.5 1.5 0 0 0 11.75 8.5 z M 7 9 A 5 4.5 0 0 0 2 13.5 A 5 4.5 0 0 0 2.0332031 14 L 8.5 14 L 8.5 11 C 8.5 10.536505 8.8202437 10.144287 9.25 10.032227 L 9.25 9.484375 A 5 4.5 0 0 0 7 9 z M 11.75 9.25 A 0.75008507 0.75008507 0 0 1 12.5 10 L 12.5 11 L 11 11 L 11 10 A 0.75008507 0.75008507 0 0 1 11.75 9.25 z M 11.75 12 A 0.75 0.75 0 0 1 12.5 12.75 A 0.75 0.75 0 0 1 12.125 13.399414 L 12.125 14.25 L 11.375 14.25 L 11.375 13.399414 A 0.75 0.75 0 0 1 11 12.75 A 0.75 0.75 0 0 1 11.75 12 z " />
</svg>
