<?xml version="1.0" encoding="UTF-8" standalone="no"?>
<svg
   viewBox="0 0 16 16"
   version="1.1"
   id="svg5"
   sodipodi:docname="edit_text_line_delete.svg"
   inkscape:version="1.3-beta (cedbd6c, 2023-05-28)"
   width="32"
   height="32"
   xmlns:inkscape="http://www.inkscape.org/namespaces/inkscape"
   xmlns:sodipodi="http://sodipodi.sourceforge.net/DTD/sodipodi-0.dtd"
   xmlns="http://www.w3.org/2000/svg"
   xmlns:svg="http://www.w3.org/2000/svg"
   xmlns:rdf="http://www.w3.org/1999/02/22-rdf-syntax-ns#"
   xmlns:cc="http://creativecommons.org/ns#"
   xmlns:dc="http://purl.org/dc/elements/1.1/">
  <metadata
     id="metadata9">
    <rdf:RDF>
      <cc:Work
         rdf:about="">
        <dc:format>image/svg+xml</dc:format>
        <dc:type
           rdf:resource="http://purl.org/dc/dcmitype/StillImage" />
      </cc:Work>
    </rdf:RDF>
  </metadata>
  <sodipodi:namedview
     pagecolor="#808080"
     bordercolor="#666666"
     borderopacity="1"
     objecttolerance="10"
     gridtolerance="10"
     guidetolerance="10"
     inkscape:pageopacity="0"
     inkscape:pageshadow="2"
     inkscape:window-width="1912"
     inkscape:window-height="1694"
     id="namedview7"
     showgrid="true"
     inkscape:zoom="32"
     inkscape:cx="15.0625"
     inkscape:cy="15.765625"
     inkscape:window-x="1920"
     inkscape:window-y="0"
     inkscape:window-maximized="0"
     inkscape:current-layer="svg5"
     inkscape:snap-bbox="true"
     inkscape:bbox-nodes="true"
     inkscape:snap-page="true"
     inkscape:document-rotation="0"
     inkscape:snap-bbox-edge-midpoints="true"
     inkscape:showpageshadow="0"
     inkscape:pagecheckerboard="0"
     inkscape:deskcolor="#d1d1d1">
    <inkscape:grid
       id="grid1"
       units="px"
       originx="0"
       originy="0"
       spacingx="0.5"
       spacingy="0.5"
       empcolor="#404040"
       empopacity="0.50196078"
       color="#404040"
       opacity="0.501961"
       empspacing="5"
       dotted="false"
       gridanglex="30"
       gridanglez="30"
       visible="true" />
  </sodipodi:namedview>
  <defs
     id="defs3051">
    <style
       type="text/css"
       id="current-color-scheme">&#10;      .ColorScheme-Text {&#10;        color:#232629;&#10;      }&#10;      </style>
  </defs>
  <g
     id="g18"
     style="opacity:0.5;fill:#000000">
    <path
       id="path5"
       style="fill:#000000;fill-opacity:1;stroke:none;stroke-width:2"
       d="M 4 4 L 4 6 L 8 6 L 10 6 L 18 6 L 18 4 L 10 4 L 8 4 L 4 4 z M 4 8 L 4 10 L 18 10 L 18 8 L 4 8 z M 24.414062 9.5859375 L 23 11 L 25.121094 13.121094 L 23 15.242188 L 24.414062 16.65625 L 26.535156 14.535156 L 28.65625 16.65625 L 30.070312 15.242188 L 27.949219 13.121094 L 30.070312 11 L 28.65625 9.5859375 L 26.535156 11.707031 L 24.414062 9.5859375 z M 4 16 L 4 18 L 18 18 L 18 16 L 4 16 z M 19 16 L 19 18 L 21 18 L 22 18 L 22 16 L 21 16 L 19 16 z M 4 20 L 4 22 L 18 22 L 18 20 L 4 20 z M 19 20 L 19 22 L 20 22 L 21 22 L 22 22 L 22 20 L 21 20 L 20 20 L 19 20 z M 4 24 L 4 26 L 8 26 L 8 24 L 4 24 z "
       transform="scale(0.5)" />
    <path
       id="path785"
       style="fill:#000000;fill-opacity:1;stroke:none"
       d="M 9 2 L 9 3 L 10 3 L 11 3 L 11 2 L 10 2 L 9 2 z M 9 4 L 9 5 L 10 5 L 11 5 L 11 4 L 10 4 L 9 4 z " />
    <path
       id="path7"
       style="fill:#000000;fill-opacity:0.5;stroke:none;stroke-width:1"
       d="M 2 6 L 2 7 L 3 7 L 10 7 L 11 7 L 11 6 L 10 6 L 3 6 L 2 6 z " />
    <path
       inkscape:connector-curvature="0"
       id="path12"
       d="m 8.5,10 v 1 h 1 v -1 z"
       style="fill:#000000;fill-opacity:1;stroke:none" />
    <path
       inkscape:connector-curvature="0"
       id="path13"
       d="m 8.5,8 v 1 h 1 V 8 Z"
       style="fill:#000000;fill-opacity:1;stroke:none" />
  </g>
</svg>
