<?xml version="1.0" encoding="UTF-8" standalone="no"?>
<svg
   viewBox="0 0 16 16"
   version="1.1"
   id="svg5"
   sodipodi:docname="edit_readonly.svg"
   inkscape:version="1.3-beta (cedbd6c, 2023-05-28)"
   width="32"
   height="32"
   xmlns:inkscape="http://www.inkscape.org/namespaces/inkscape"
   xmlns:sodipodi="http://sodipodi.sourceforge.net/DTD/sodipodi-0.dtd"
   xmlns="http://www.w3.org/2000/svg"
   xmlns:svg="http://www.w3.org/2000/svg"
   xmlns:rdf="http://www.w3.org/1999/02/22-rdf-syntax-ns#"
   xmlns:cc="http://creativecommons.org/ns#"
   xmlns:dc="http://purl.org/dc/elements/1.1/">
  <metadata
     id="metadata9">
    <rdf:RDF>
      <cc:Work
         rdf:about="">
        <dc:format>image/svg+xml</dc:format>
        <dc:type
           rdf:resource="http://purl.org/dc/dcmitype/StillImage" />
      </cc:Work>
    </rdf:RDF>
  </metadata>
  <sodipodi:namedview
     pagecolor="#808080"
     bordercolor="#666666"
     borderopacity="1"
     objecttolerance="10"
     gridtolerance="10"
     guidetolerance="10"
     inkscape:pageopacity="0"
     inkscape:pageshadow="2"
     inkscape:window-width="1912"
     inkscape:window-height="990"
     id="namedview7"
     showgrid="true"
     inkscape:zoom="32"
     inkscape:cx="25.828125"
     inkscape:cy="15.953125"
     inkscape:window-x="0"
     inkscape:window-y="0"
     inkscape:window-maximized="0"
     inkscape:current-layer="svg5"
     inkscape:snap-bbox="true"
     inkscape:bbox-nodes="true"
     inkscape:snap-page="true"
     inkscape:pagecheckerboard="0"
     inkscape:showpageshadow="0"
     inkscape:deskcolor="#d1d1d1">
    <inkscape:grid
       type="xygrid"
       id="grid823"
       originx="0"
       originy="0"
       spacingy="0.5"
       spacingx="0.5"
       units="px"
       visible="true"
       color="#404040"
       opacity="0.50196078"
       empcolor="#404040"
       empopacity="0.50196078" />
  </sodipodi:namedview>
  <defs
     id="defs3051">
    <style
       type="text/css"
       id="current-color-scheme">&#10;      .ColorScheme-Text {&#10;        color:#232629;&#10;      }&#10;      </style>
  </defs>
  <path
     id="path773"
     style="fill:#000000;fill-opacity:0.5;stroke:none;stroke-width:6"
     d="M 4 3.2714844 L 2.5859375 4.6855469 L 6.828125 8.9296875 L 10.949219 13.050781 L 4 20 L 4 26 L 4 28 L 6 28 L 12 28 L 18.949219 21.050781 L 22.384766 24.484375 L 26.626953 28.728516 L 28.041016 27.314453 L 23.798828 23.070312 L 23.796875 23.070312 L 20.363281 19.636719 L 18.949219 18.222656 L 13.777344 13.050781 L 12.363281 11.636719 L 8.2421875 7.515625 L 4 3.2714844 z M 20 4 L 14.34375 9.65625 L 13.777344 10.222656 L 15.191406 11.636719 L 15.757812 11.070312 L 20 6.828125 L 25.171875 12 L 23.314453 13.857422 L 20.929688 16.242188 L 20.363281 16.808594 L 21.777344 18.222656 L 22.34375 17.65625 L 24.728516 15.271484 L 28 12 L 27 11 L 26.585938 10.585938 L 21.414062 5.4140625 L 20 4 z M 12.363281 14.464844 L 17.535156 19.636719 L 15.414062 21.757812 L 10.242188 16.585938 L 12.363281 14.464844 z M 8.828125 18 L 14 23.171875 L 12.585938 24.585938 L 7.4140625 19.414062 L 8.828125 18 z "
     transform="scale(0.5)" />
</svg>
