<?xml version="1.0" encoding="UTF-8" standalone="no"?>
<svg
   viewBox="0 0 16 16"
   version="1.1"
   id="svg5"
   sodipodi:docname="folder__filled_close.svg"
   inkscape:version="1.2.2 (b0a8486, 2022-12-01)"
   width="32"
   height="32"
   xmlns:inkscape="http://www.inkscape.org/namespaces/inkscape"
   xmlns:sodipodi="http://sodipodi.sourceforge.net/DTD/sodipodi-0.dtd"
   xmlns="http://www.w3.org/2000/svg"
   xmlns:svg="http://www.w3.org/2000/svg"
   xmlns:rdf="http://www.w3.org/1999/02/22-rdf-syntax-ns#"
   xmlns:cc="http://creativecommons.org/ns#"
   xmlns:dc="http://purl.org/dc/elements/1.1/">
  <metadata
     id="metadata9">
    <rdf:RDF>
      <cc:Work
         rdf:about="">
        <dc:format>image/svg+xml</dc:format>
        <dc:type
           rdf:resource="http://purl.org/dc/dcmitype/StillImage" />
      </cc:Work>
    </rdf:RDF>
  </metadata>
  <sodipodi:namedview
     pagecolor="#ffffff"
     bordercolor="#666666"
     borderopacity="1"
     objecttolerance="10"
     gridtolerance="10"
     guidetolerance="10"
     inkscape:pageopacity="0"
     inkscape:pageshadow="2"
     inkscape:window-width="1554"
     inkscape:window-height="1641"
     id="namedview7"
     showgrid="true"
     inkscape:zoom="22.627417"
     inkscape:cx="15.202796"
     inkscape:cy="38.38264"
     inkscape:window-x="3609"
     inkscape:window-y="257"
     inkscape:window-maximized="0"
     inkscape:current-layer="g15920"
     inkscape:snap-bbox="true"
     inkscape:snap-bbox-edge-midpoints="true"
     inkscape:showpageshadow="0"
     inkscape:pagecheckerboard="0"
     inkscape:deskcolor="#d1d1d1">
    <inkscape:grid
       type="xygrid"
       id="grid3343"
       units="px"
       spacingx="0.5"
       spacingy="0.5" />
  </sodipodi:namedview>
  <defs
     id="defs3051">
    <style
       type="text/css"
       id="current-color-scheme">
      .ColorScheme-Text {
        color:#232629;
      }
      </style>
  </defs>
  <g
     id="g15920"
     style="opacity:0.5;fill:#000000">
    <path
       id="path741"
       style="fill:#000000;fill-opacity:0.5;stroke:none;stroke-width:0.999996;opacity:1"
       d="M 3 4 L 3 5 L 3 13 L 13 13 L 13 5 L 8.5 5 L 7.5 4 L 3 4 z " />
    <path
       id="path13"
       style="fill:#000000;fill-opacity:1;stroke:none"
       d="M 3,2 C 2.4500011,2 2,2.4500011 2,3 v 10 c 0,0.549998 0.4500011,1 1,1 h 6 4 c 0.549998,0 1,-0.450002 1,-1 V 9 5 C 14,4.4500011 13.549998,4 13,4 H 9.0078125 l -2,-2 L 7,2.0078125 V 2 Z m 0,2 h 4.5 l 1,1 H 13 v 1 3 4 H 9 3 V 9 8 5 Z" />
  </g>
</svg>
