<?xml version="1.0" encoding="UTF-8" standalone="no"?>
<svg
   viewBox="0 0 16 16"
   version="1.1"
   id="svg6"
   sodipodi:docname="process_edit.svg"
   inkscape:version="1.3-beta (cedbd6c, 2023-05-28)"
   width="32"
   height="32"
   xmlns:inkscape="http://www.inkscape.org/namespaces/inkscape"
   xmlns:sodipodi="http://sodipodi.sourceforge.net/DTD/sodipodi-0.dtd"
   xmlns="http://www.w3.org/2000/svg"
   xmlns:svg="http://www.w3.org/2000/svg"
   xmlns:rdf="http://www.w3.org/1999/02/22-rdf-syntax-ns#"
   xmlns:cc="http://creativecommons.org/ns#"
   xmlns:dc="http://purl.org/dc/elements/1.1/">
  <metadata
     id="metadata10">
    <rdf:RDF>
      <cc:Work
         rdf:about="">
        <dc:format>image/svg+xml</dc:format>
        <dc:type
           rdf:resource="http://purl.org/dc/dcmitype/StillImage" />
      </cc:Work>
    </rdf:RDF>
  </metadata>
  <sodipodi:namedview
     pagecolor="#808080"
     bordercolor="#666666"
     borderopacity="1"
     objecttolerance="10"
     gridtolerance="10"
     guidetolerance="10"
     inkscape:pageopacity="0"
     inkscape:pageshadow="2"
     inkscape:window-width="1912"
     inkscape:window-height="2056"
     id="namedview8"
     showgrid="true"
     inkscape:zoom="29.5"
     inkscape:cx="13.898305"
     inkscape:cy="17.644068"
     inkscape:window-x="3840"
     inkscape:window-y="0"
     inkscape:window-maximized="0"
     inkscape:current-layer="svg6"
     inkscape:snap-text-baseline="false"
     inkscape:snap-page="true"
     inkscape:pagecheckerboard="0"
     inkscape:snap-bbox="true"
     inkscape:bbox-paths="true"
     inkscape:bbox-nodes="true"
     inkscape:showpageshadow="0"
     inkscape:deskcolor="#d1d1d1">
    <inkscape:grid
       type="xygrid"
       id="grid845"
       originx="0"
       originy="0"
       spacingy="0.5"
       spacingx="0.5"
       units="px"
       visible="true"
       color="#404040"
       opacity="0.501961"
       empcolor="#404040"
       empopacity="0.50196078" />
  </sodipodi:namedview>
  <defs
     id="defs3051">
    <style
       type="text/css"
       id="current-color-scheme">&#10;      .ColorScheme-Text {&#10;        color:#232629;&#10;      }&#10;      .ColorScheme-NegativeText {&#10;        color:#da4453;&#10;      }&#10;      </style>
  </defs>
  <path
     id="path6"
     style="opacity:1;fill:#050505;fill-opacity:0.5;stroke:none;stroke-width:1"
     d="M 1.9746094 2 C 1.4363684 2.0137587 1 2.4585989 1 3 L 1 13 C 1 13.549991 1.4500051 14 2 14 L 6 14 L 6.5 14 L 6.5 13 L 6 13 L 2 13 L 2 5 L 6.5 5 L 12 5 L 12 6 L 12 7 L 13 6 L 13 5.5 L 13 5 L 13 3 C 13 2.4500051 12.549991 2 12 2 L 2 2 C 1.99141 2 1.983153 1.9997816 1.9746094 2 z M 3 6 L 3 7 L 6 7 L 7 7 L 7 6 L 6 6 L 3 6 z M 8 6 L 8 7 L 9 7 L 10 7 L 10 6 L 9 6 L 8 6 z M 13.039062 7.4609375 L 12.039062 8.4570312 L 12.041016 8.4589844 L 7.5 13 L 7.5 15 L 9.5 15 L 9.5019531 14.998047 L 9.5058594 15 L 10.207031 14.296875 L 10.203125 14.292969 L 14.328125 10.158203 L 15.035156 9.4511719 L 13.039062 7.4609375 z M 3 8 L 3 9 L 6 9 L 6 8 L 3 8 z M 7 8 L 7 9 L 10 9 L 11 8 L 10 8 L 7 8 z M 12.736328 9.1503906 L 13.318359 9.7324219 L 13.34375 9.7558594 L 9.5058594 13.59375 L 8.8027344 14.296875 L 8.8007812 14.300781 L 8.78125 14.28125 L 8.1992188 13.699219 L 12.736328 9.1503906 z M 3 10 L 3 11 L 4 11 L 5 11 L 5 10 L 4 10 L 3 10 z M 6 10 L 6 11 L 8 11 L 9 10 L 6 10 z " />
</svg>
