<?xml version="1.0" encoding="UTF-8" standalone="no"?>
<svg
   viewBox="0 0 16 16"
   version="1.1"
   id="svg6"
   sodipodi:docname="symbol+filled_ok.svg"
   inkscape:version="1.3-beta (cedbd6c, 2023-05-28)"
   width="32"
   height="32"
   xmlns:inkscape="http://www.inkscape.org/namespaces/inkscape"
   xmlns:sodipodi="http://sodipodi.sourceforge.net/DTD/sodipodi-0.dtd"
   xmlns="http://www.w3.org/2000/svg"
   xmlns:svg="http://www.w3.org/2000/svg"
   xmlns:rdf="http://www.w3.org/1999/02/22-rdf-syntax-ns#"
   xmlns:cc="http://creativecommons.org/ns#"
   xmlns:dc="http://purl.org/dc/elements/1.1/">
  <metadata
     id="metadata10">
    <rdf:RDF>
      <cc:Work
         rdf:about="">
        <dc:format>image/svg+xml</dc:format>
        <dc:type
           rdf:resource="http://purl.org/dc/dcmitype/StillImage" />
      </cc:Work>
    </rdf:RDF>
  </metadata>
  <sodipodi:namedview
     pagecolor="#808080"
     bordercolor="#666666"
     borderopacity="1"
     objecttolerance="10"
     gridtolerance="10"
     guidetolerance="10"
     inkscape:pageopacity="0"
     inkscape:pageshadow="2"
     inkscape:window-width="1912"
     inkscape:window-height="1358"
     id="namedview8"
     showgrid="true"
     inkscape:zoom="45.254834"
     inkscape:cx="16.440233"
     inkscape:cy="15.644738"
     inkscape:window-x="3840"
     inkscape:window-y="698"
     inkscape:window-maximized="0"
     inkscape:current-layer="svg6"
     inkscape:pagecheckerboard="0"
     inkscape:snap-bbox="true"
     inkscape:showpageshadow="0"
     inkscape:deskcolor="#d1d1d1">
    <inkscape:grid
       type="xygrid"
       id="grid863"
       originx="0"
       originy="0"
       spacingy="0.5"
       spacingx="0.5"
       units="px"
       visible="true"
       color="#404040"
       opacity="0.501961"
       empcolor="#404040"
       empopacity="0.50196078" />
  </sodipodi:namedview>
  <defs
     id="defs3051">
    <style
       type="text/css"
       id="current-color-scheme">&#10;      .ColorScheme-Text {&#10;        color:#232629;&#10;      }&#10;      </style>
  </defs>
  <path
     style="fill:#ffffff;stroke:none;stroke-width:0.5px;stroke-linecap:butt;stroke-linejoin:miter;stroke-opacity:1;fill-opacity:1"
     d="M 5,7 4,8.5 7.5,12 10,10.5 13,7 12,5 Z"
     id="path1" />
  <path
     id="path4-2"
     style="color:#232629;fill:#71c837;fill-opacity:1;stroke:none;stroke-width:1"
     d="M 7.5 2.5 C 4.4620182 2.5 2 4.962018 2 8 C 2 11.037982 4.4620182 13.5 7.5 13.5 C 10.537982 13.5 13 11.037982 13 8 C 13 7.3978296 12.902404 6.8185916 12.723633 6.2763672 L 11.908203 7.0917969 L 8.2070312 10.792969 L 7.5 11.5 L 6.7929688 10.792969 L 4.671875 8.671875 L 5.3789062 7.9648438 L 7.5 10.085938 L 11.550781 6.0351562 L 12.289062 5.296875 C 11.344955 3.6273884 9.5551334 2.5 7.5 2.5 z " />
  <path
     id="path9"
     style="color:#232629;fill:#ffffff;fill-opacity:1;stroke-width:0.5;-inkscape-stroke:none"
     d="m 7.5,2 c -3.3081127,0 -6,2.6918874 -6,6 0,3.308113 2.6918873,6 6,6 3.308113,0 6,-2.691887 6,-6 0,-3.3081126 -2.691887,-6 -6,-6 z m 0,1 c 2.767839,0 5,2.2321613 5,5 0,2.767838 -2.232161,5 -5,5 -2.7678382,0 -5,-2.232162 -5,-5 0,-2.7678387 2.2321618,-5 5,-5 z" />
</svg>
